<?xml version="1.0" encoding="UTF-8"?>
<svg width="277px" height="50px" viewBox="0 0 277 50" xmlns="http://www.w3.org/2000/svg" xmlns:xlink="http://www.w3.org/1999/xlink" version="1.1">
 <!-- Generated by Pixelmator Pro 1.3.4 -->
 <defs>
  <path id="path" d="M265.364 41.283 C265.364 40.695 265.522 40.25 265.837 39.949 266.152 39.648 266.61 39.498 267.212 39.498 267.793 39.498 268.243 39.652 268.562 39.96 268.88 40.268 269.04 40.709 269.04 41.283 269.04 41.836 268.879 42.272 268.557 42.59 268.234 42.909 267.786 43.068 267.212 43.068 266.624 43.068 266.169 42.912 265.847 42.601 265.525 42.289 265.364 41.85 265.364 41.283 Z"/>
 </defs>
 <use id="-" xlink:href="#path" fill="#000000" fill-opacity="1" stroke="none"/>
 <use id="--1" xlink:href="#path" fill="#ffffff" fill-opacity="1" stroke="none"/>
 <defs>
  <path id="path-1" d="M259.231 41.283 C259.231 40.695 259.389 40.25 259.704 39.949 260.019 39.648 260.477 39.498 261.08 39.498 261.661 39.498 262.11 39.652 262.429 39.96 262.748 40.268 262.907 40.709 262.907 41.283 262.907 41.836 262.746 42.272 262.424 42.59 262.102 42.909 261.654 43.068 261.08 43.068 260.491 43.068 260.036 42.912 259.714 42.601 259.392 42.289 259.231 41.85 259.231 41.283 Z"/>
 </defs>
 <use id="--2" xlink:href="#path-1" fill="#000000" fill-opacity="1" stroke="none"/>
 <use id="--3" xlink:href="#path-1" fill="#ffffff" fill-opacity="1" stroke="none"/>
 <defs>
  <path id="path-2" d="M253.099 41.283 C253.099 40.695 253.256 40.25 253.571 39.949 253.886 39.648 254.345 39.498 254.947 39.498 255.528 39.498 255.978 39.652 256.296 39.96 256.615 40.268 256.774 40.709 256.774 41.283 256.774 41.836 256.613 42.272 256.291 42.59 255.969 42.909 255.521 43.068 254.947 43.068 254.359 43.068 253.904 42.912 253.582 42.601 253.26 42.289 253.099 41.85 253.099 41.283 Z"/>
 </defs>
 <use id="--4" xlink:href="#path-2" fill="#000000" fill-opacity="1" stroke="none"/>
 <use id="--5" xlink:href="#path-2" fill="#ffffff" fill-opacity="1" stroke="none"/>
 <defs>
  <path id="path-3" d="M245.706 33.102 C245.026 33.102 244.495 33.317 244.109 33.748 243.724 34.178 243.504 34.789 243.448 35.58 L247.942 35.58 C247.928 34.789 247.722 34.178 247.323 33.748 246.924 33.317 246.385 33.102 245.706 33.102 Z M246.157 42.994 C244.267 42.994 242.79 42.473 241.726 41.43 240.661 40.387 240.129 38.909 240.129 36.998 240.129 35.031 240.621 33.51 241.605 32.435 242.589 31.361 243.948 30.823 245.685 30.823 247.344 30.823 248.635 31.296 249.56 32.241 250.484 33.186 250.946 34.492 250.946 36.158 L250.946 37.712 243.374 37.712 C243.409 38.622 243.679 39.333 244.183 39.844 244.687 40.355 245.394 40.611 246.304 40.611 247.011 40.611 247.68 40.537 248.31 40.39 248.94 40.243 249.598 40.009 250.284 39.686 L250.284 42.165 C249.724 42.445 249.126 42.653 248.489 42.79 247.851 42.926 247.074 42.994 246.157 42.994 Z"/>
 </defs>
 <use id="e" xlink:href="#path-3" fill="#000000" fill-opacity="1" stroke="none"/>
 <use id="e-1" xlink:href="#path-3" fill="#ffffff" fill-opacity="1" stroke="none"/>
 <defs>
  <path id="path-4" d="M235.026 42.784 L234.595 41.283 234.427 41.283 C234.084 41.829 233.598 42.251 232.967 42.548 232.337 42.846 231.62 42.994 230.815 42.994 229.435 42.994 228.396 42.625 227.696 41.886 226.996 41.148 226.646 40.086 226.646 38.699 L226.646 31.044 229.849 31.044 229.849 37.901 C229.849 38.748 229.999 39.384 230.3 39.807 230.601 40.231 231.081 40.443 231.739 40.443 232.635 40.443 233.282 40.143 233.682 39.545 234.081 38.946 234.28 37.954 234.28 36.568 L234.28 31.044 237.483 31.044 237.483 42.784 Z"/>
 </defs>
 <use id="u" xlink:href="#path-4" fill="#000000" fill-opacity="1" stroke="none"/>
 <use id="u-1" xlink:href="#path-4" fill="#ffffff" fill-opacity="1" stroke="none"/>
 <defs>
  <path id="path-5" d="M217.961 40.485 C218.773 40.485 219.368 40.252 219.746 39.786 220.124 39.321 220.331 38.507 220.366 37.345 L220.366 36.956 C220.366 35.696 220.171 34.793 219.783 34.247 219.394 33.701 218.769 33.428 217.908 33.428 216.403 33.428 215.65 34.611 215.65 36.977 215.65 38.153 215.838 39.032 216.212 39.613 216.587 40.194 217.17 40.485 217.961 40.485 Z M216.816 42.995 C215.43 42.995 214.345 42.461 213.561 41.393 212.776 40.325 212.385 38.839 212.385 36.935 212.385 35.017 212.785 33.519 213.587 32.441 214.389 31.362 215.486 30.823 216.879 30.823 217.621 30.823 218.269 30.963 218.822 31.243 219.375 31.523 219.862 31.958 220.282 32.546 L220.366 32.546 220.649 31.044 223.359 31.044 223.359 47.951 220.145 47.951 220.145 43.026 C220.145 42.599 220.191 42.011 220.282 41.262 L220.145 41.262 C219.802 41.829 219.347 42.259 218.78 42.553 218.213 42.848 217.558 42.995 216.816 42.995 Z"/>
 </defs>
 <use id="q" xlink:href="#path-5" fill="#000000" fill-opacity="1" stroke="none"/>
 <use id="q-1" xlink:href="#path-5" fill="#ffffff" fill-opacity="1" stroke="none"/>
 <defs>
  <text id="string" transform="matrix(1.0 0.0 0.0 1.0 201.3317887931 19.78432765152)">
   <tspan x="4.5" y="23.0" font-family="OpenSansBold, OpenSansBold" font-size="21.507" text-decoration="none"> </tspan>
  </text>
 </defs>
 <use id="--6" xlink:href="#string" fill="#ffffff" fill-opacity="1" stroke="none"/>
 <defs>
  <path id="path-6" d="M199.667 33.102 C198.988 33.102 198.456 33.317 198.071 33.748 197.686 34.178 197.466 34.789 197.41 35.58 L201.904 35.58 C201.89 34.789 201.684 34.178 201.285 33.748 200.886 33.317 200.347 33.102 199.667 33.102 Z M200.119 42.994 C198.229 42.994 196.752 42.473 195.687 41.43 194.623 40.387 194.091 38.909 194.091 36.998 194.091 35.031 194.583 33.51 195.567 32.435 196.55 31.361 197.91 30.823 199.646 30.823 201.306 30.823 202.597 31.296 203.521 32.241 204.446 33.186 204.908 34.492 204.908 36.158 L204.908 37.712 197.336 37.712 C197.371 38.622 197.641 39.333 198.145 39.844 198.649 40.355 199.356 40.611 200.266 40.611 200.973 40.611 201.642 40.537 202.272 40.39 202.902 40.243 203.56 40.009 204.246 39.686 L204.246 42.165 C203.686 42.445 203.087 42.653 202.45 42.79 201.813 42.926 201.036 42.994 200.119 42.994 Z"/>
 </defs>
 <use id="e-2" xlink:href="#path-6" fill="#000000" fill-opacity="1" stroke="none"/>
 <use id="e-3" xlink:href="#path-6" fill="#ffffff" fill-opacity="1" stroke="none"/>
 <defs>
  <path id="path-7" d="M188.515 42.994 C184.86 42.994 183.033 40.989 183.033 36.977 183.033 34.982 183.53 33.457 184.524 32.404 185.519 31.35 186.943 30.823 188.798 30.823 190.157 30.823 191.375 31.089 192.453 31.621 L191.508 34.1 C191.004 33.897 190.535 33.73 190.101 33.601 189.667 33.471 189.233 33.407 188.798 33.407 187.132 33.407 186.299 34.59 186.299 36.956 186.299 39.252 187.132 40.401 188.798 40.401 189.415 40.401 189.985 40.318 190.51 40.154 191.035 39.989 191.56 39.732 192.085 39.382 L192.085 42.123 C191.567 42.452 191.044 42.679 190.516 42.805 189.987 42.931 189.32 42.994 188.515 42.994 Z"/>
 </defs>
 <use id="c" xlink:href="#path-7" fill="#000000" fill-opacity="1" stroke="none"/>
 <use id="c-1" xlink:href="#path-7" fill="#ffffff" fill-opacity="1" stroke="none"/>
 <defs>
  <path id="path-8" d="M180.964 30.823 C181.398 30.823 181.759 30.855 182.046 30.918 L181.804 33.921 C181.545 33.851 181.23 33.816 180.859 33.816 179.837 33.816 179.041 34.079 178.47 34.604 177.9 35.129 177.614 35.864 177.614 36.809 L177.614 42.785 174.411 42.785 174.411 31.044 176.837 31.044 177.31 33.018 177.467 33.018 C177.831 32.36 178.323 31.83 178.943 31.427 179.562 31.025 180.236 30.823 180.964 30.823 Z"/>
 </defs>
 <use id="r" xlink:href="#path-8" fill="#000000" fill-opacity="1" stroke="none"/>
 <use id="r-1" xlink:href="#path-8" fill="#ffffff" fill-opacity="1" stroke="none"/>
 <defs>
  <path id="path-9" d="M168.877 42.784 L168.258 41.188 168.174 41.188 C167.635 41.867 167.08 42.338 166.509 42.601 165.938 42.863 165.195 42.994 164.278 42.994 163.15 42.994 162.263 42.672 161.615 42.028 160.968 41.384 160.644 40.467 160.644 39.277 160.644 38.031 161.08 37.112 161.951 36.52 162.823 35.929 164.137 35.601 165.895 35.538 L167.932 35.475 167.932 34.961 C167.932 33.771 167.323 33.176 166.105 33.176 165.167 33.176 164.064 33.459 162.797 34.026 L161.736 31.863 C163.087 31.156 164.586 30.802 166.231 30.802 167.806 30.802 169.014 31.145 169.854 31.831 170.694 32.517 171.114 33.561 171.114 34.961 L171.114 42.784 Z M167.932 37.345 L166.693 37.387 C165.762 37.415 165.069 37.583 164.614 37.891 164.159 38.199 163.931 38.668 163.931 39.298 163.931 40.201 164.449 40.653 165.485 40.653 166.227 40.653 166.821 40.439 167.265 40.012 167.71 39.585 167.932 39.018 167.932 38.311 Z"/>
 </defs>
 <use id="a" xlink:href="#path-9" fill="#000000" fill-opacity="1" stroke="none"/>
 <use id="a-1" xlink:href="#path-9" fill="#ffffff" fill-opacity="1" stroke="none"/>
 <defs>
  <path id="path-10" d="M154.259 42.995 C152.88 42.995 151.798 42.494 151.014 41.493 L150.846 41.493 C150.958 42.473 151.014 43.04 151.014 43.194 L151.014 47.951 147.811 47.951 147.811 31.044 150.416 31.044 150.867 32.567 151.014 32.567 C151.763 31.404 152.873 30.823 154.343 30.823 155.729 30.823 156.815 31.359 157.599 32.43 158.383 33.501 158.775 34.989 158.775 36.893 158.775 38.146 158.591 39.235 158.224 40.159 157.856 41.083 157.333 41.787 156.654 42.27 155.974 42.753 155.176 42.995 154.259 42.995 Z M153.314 33.386 C152.523 33.386 151.945 33.629 151.581 34.116 151.217 34.602 151.028 35.406 151.014 36.526 L151.014 36.872 C151.014 38.132 151.202 39.036 151.576 39.582 151.951 40.128 152.544 40.401 153.356 40.401 154.791 40.401 155.509 39.218 155.509 36.851 155.509 35.696 155.332 34.83 154.979 34.252 154.625 33.674 154.07 33.386 153.314 33.386 Z"/>
 </defs>
 <use id="p" xlink:href="#path-10" fill="#000000" fill-opacity="1" stroke="none"/>
 <use id="p-1" xlink:href="#path-10" fill="#ffffff" fill-opacity="1" stroke="none"/>
 <defs>
  <text id="string-1" transform="matrix(1.0 0.0 0.0 1.0 136.0444958917 19.78432765152)">
   <tspan x="4.5" y="23.0" font-family="OpenSansBold, OpenSansBold" font-size="21.507" text-decoration="none"> </tspan>
  </text>
 </defs>
 <use id="--7" xlink:href="#string-1" fill="#ffffff" fill-opacity="1" stroke="none"/>
 <defs>
  <path id="path-11" d="M139.725 39.298 C139.725 40.502 139.307 41.419 138.47 42.049 137.634 42.679 136.382 42.994 134.716 42.994 133.862 42.994 133.134 42.937 132.532 42.821 131.93 42.706 131.366 42.536 130.841 42.312 L130.841 39.665 C131.436 39.945 132.107 40.18 132.852 40.369 133.598 40.558 134.254 40.653 134.821 40.653 135.983 40.653 136.564 40.317 136.564 39.644 136.564 39.392 136.487 39.188 136.333 39.03 136.179 38.873 135.913 38.694 135.535 38.495 135.157 38.295 134.653 38.062 134.023 37.796 133.12 37.418 132.457 37.068 132.033 36.746 131.609 36.424 131.301 36.055 131.109 35.638 130.916 35.222 130.82 34.709 130.82 34.1 130.82 33.057 131.224 32.25 132.033 31.679 132.842 31.109 133.988 30.823 135.472 30.823 136.886 30.823 138.262 31.131 139.599 31.747 L138.633 34.058 C138.045 33.806 137.496 33.599 136.984 33.438 136.473 33.277 135.952 33.197 135.42 33.197 134.475 33.197 134.002 33.452 134.002 33.963 134.002 34.25 134.154 34.499 134.459 34.709 134.763 34.919 135.43 35.23 136.459 35.643 137.377 36.014 138.049 36.361 138.476 36.683 138.903 37.005 139.218 37.376 139.421 37.796 139.624 38.216 139.725 38.717 139.725 39.298 Z"/>
 </defs>
 <use id="s" xlink:href="#path-11" fill="#000000" fill-opacity="1" stroke="none"/>
 <use id="s-1" xlink:href="#path-11" fill="#ffffff" fill-opacity="1" stroke="none"/>
 <defs>
  <path id="path-12" d="M123.69 33.102 C123.01 33.102 122.478 33.317 122.093 33.748 121.708 34.178 121.488 34.789 121.432 35.58 L125.926 35.58 C125.912 34.789 125.706 34.178 125.307 33.748 124.908 33.317 124.369 33.102 123.69 33.102 Z M124.141 42.994 C122.251 42.994 120.774 42.473 119.709 41.43 118.645 40.387 118.113 38.909 118.113 36.998 118.113 35.031 118.605 33.51 119.589 32.435 120.572 31.361 121.932 30.823 123.669 30.823 125.328 30.823 126.62 31.296 127.544 32.241 128.468 33.186 128.93 34.492 128.93 36.158 L128.93 37.712 121.358 37.712 C121.393 38.622 121.663 39.333 122.167 39.844 122.671 40.355 123.378 40.611 124.288 40.611 124.995 40.611 125.664 40.537 126.294 40.39 126.924 40.243 127.582 40.009 128.268 39.686 L128.268 42.165 C127.708 42.445 127.109 42.653 126.472 42.79 125.835 42.926 125.058 42.994 124.141 42.994 Z"/>
 </defs>
 <use id="e-4" xlink:href="#path-12" fill="#000000" fill-opacity="1" stroke="none"/>
 <use id="e-5" xlink:href="#path-12" fill="#ffffff" fill-opacity="1" stroke="none"/>
 <defs>
  <path id="path-13" d="M115.467 42.785 L112.264 42.785 112.264 26.444 115.467 26.444 Z"/>
 </defs>
 <use id="l" xlink:href="#path-13" fill="#000000" fill-opacity="1" stroke="none"/>
 <use id="l-1" xlink:href="#path-13" fill="#ffffff" fill-opacity="1" stroke="none"/>
 <defs>
  <path id="path-14" d="M105.186 30.823 C106.572 30.823 107.658 31.364 108.442 32.446 109.226 33.527 109.618 35.01 109.618 36.893 109.618 38.832 109.214 40.334 108.405 41.398 107.596 42.462 106.495 42.994 105.102 42.994 103.723 42.994 102.641 42.494 101.857 41.493 L101.637 41.493 101.101 42.784 98.654 42.784 98.654 26.444 101.857 26.444 101.857 30.246 C101.857 30.729 101.815 31.502 101.731 32.566 L101.857 32.566 C102.606 31.404 103.716 30.823 105.186 30.823 Z M104.157 33.386 C103.366 33.386 102.788 33.629 102.424 34.115 102.06 34.602 101.871 35.405 101.857 36.526 L101.857 36.872 C101.857 38.132 102.045 39.035 102.419 39.581 102.794 40.128 103.387 40.401 104.199 40.401 104.857 40.401 105.38 40.098 105.769 39.492 106.158 38.887 106.352 38.006 106.352 36.851 106.352 35.696 106.156 34.83 105.764 34.252 105.372 33.674 104.836 33.386 104.157 33.386 Z"/>
 </defs>
 <use id="b" xlink:href="#path-14" fill="#000000" fill-opacity="1" stroke="none"/>
 <use id="b-1" xlink:href="#path-14" fill="#ffffff" fill-opacity="1" stroke="none"/>
 <defs>
  <path id="path-15" d="M93.12 42.784 L92.5 41.188 92.416 41.188 C91.877 41.867 91.323 42.338 90.752 42.601 90.181 42.863 89.438 42.994 88.52 42.994 87.393 42.994 86.506 42.672 85.858 42.028 85.211 41.384 84.887 40.467 84.887 39.277 84.887 38.031 85.323 37.112 86.194 36.52 87.066 35.929 88.38 35.601 90.138 35.538 L92.175 35.475 92.175 34.961 C92.175 33.771 91.566 33.176 90.348 33.176 89.409 33.176 88.307 33.459 87.04 34.026 L85.979 31.863 C87.33 31.156 88.828 30.802 90.474 30.802 92.049 30.802 93.256 31.145 94.097 31.831 94.937 32.517 95.357 33.561 95.357 34.961 L95.357 42.784 Z M92.175 37.345 L90.936 37.387 C90.005 37.415 89.311 37.583 88.856 37.891 88.401 38.199 88.174 38.668 88.174 39.298 88.174 40.201 88.692 40.653 89.728 40.653 90.47 40.653 91.063 40.439 91.508 40.012 91.953 39.585 92.175 39.018 92.175 38.311 Z"/>
 </defs>
 <use id="a-2" xlink:href="#path-15" fill="#000000" fill-opacity="1" stroke="none"/>
 <use id="a-3" xlink:href="#path-15" fill="#ffffff" fill-opacity="1" stroke="none"/>
 <defs>
  <path id="path-16" d="M83.165 39.298 C83.165 40.502 82.746 41.419 81.91 42.049 81.073 42.679 79.822 42.994 78.155 42.994 77.301 42.994 76.573 42.937 75.971 42.821 75.369 42.706 74.805 42.536 74.28 42.312 L74.28 39.665 C74.875 39.945 75.546 40.18 76.291 40.369 77.037 40.558 77.693 40.653 78.26 40.653 79.423 40.653 80.004 40.317 80.004 39.644 80.004 39.392 79.927 39.188 79.773 39.03 79.619 38.873 79.353 38.694 78.974 38.495 78.596 38.295 78.092 38.062 77.462 37.796 76.559 37.418 75.896 37.068 75.472 36.746 75.049 36.424 74.741 36.055 74.548 35.638 74.356 35.222 74.259 34.709 74.259 34.1 74.259 33.057 74.664 32.25 75.472 31.679 76.281 31.109 77.427 30.823 78.911 30.823 80.326 30.823 81.701 31.131 83.039 31.747 L82.073 34.058 C81.484 33.806 80.935 33.599 80.424 33.438 79.913 33.277 79.391 33.197 78.859 33.197 77.914 33.197 77.441 33.452 77.441 33.963 77.441 34.25 77.594 34.499 77.898 34.709 78.203 34.919 78.87 35.23 79.899 35.643 80.816 36.014 81.488 36.361 81.915 36.683 82.342 37.005 82.657 37.376 82.86 37.796 83.063 38.216 83.165 38.717 83.165 39.298 Z"/>
 </defs>
 <use id="s-2" xlink:href="#path-16" fill="#000000" fill-opacity="1" stroke="none"/>
 <use id="s-3" xlink:href="#path-16" fill="#ffffff" fill-opacity="1" stroke="none"/>
 <defs>
  <path id="path-17" d="M71.676 42.785 L68.473 42.785 68.473 35.927 C68.473 35.08 68.323 34.445 68.022 34.021 67.721 33.598 67.241 33.386 66.583 33.386 65.687 33.386 65.039 33.685 64.64 34.284 64.241 34.882 64.042 35.875 64.042 37.261 L64.042 42.785 60.839 42.785 60.839 31.044 63.286 31.044 63.716 32.546 63.895 32.546 C64.252 31.979 64.744 31.55 65.37 31.259 65.997 30.969 66.709 30.823 67.507 30.823 68.872 30.823 69.908 31.193 70.616 31.931 71.323 32.67 71.676 33.736 71.676 35.129 Z"/>
 </defs>
 <use id="n" xlink:href="#path-17" fill="#000000" fill-opacity="1" stroke="none"/>
 <use id="n-1" xlink:href="#path-17" fill="#ffffff" fill-opacity="1" stroke="none"/>
 <defs>
  <path id="path-18" d="M50.075 36.893 C50.075 38.055 50.265 38.934 50.647 39.529 51.029 40.124 51.65 40.422 52.511 40.422 53.365 40.422 53.979 40.126 54.354 39.534 54.729 38.943 54.916 38.062 54.916 36.893 54.916 35.731 54.727 34.859 54.349 34.278 53.971 33.697 53.351 33.407 52.49 33.407 51.636 33.407 51.02 33.695 50.642 34.273 50.264 34.851 50.075 35.724 50.075 36.893 Z M58.192 36.893 C58.192 38.804 57.688 40.299 56.68 41.377 55.672 42.455 54.268 42.994 52.469 42.994 51.342 42.994 50.348 42.748 49.487 42.254 48.625 41.76 47.964 41.052 47.502 40.128 47.04 39.203 46.809 38.125 46.809 36.893 46.809 34.975 47.309 33.484 48.31 32.419 49.312 31.355 50.719 30.823 52.532 30.823 53.659 30.823 54.653 31.068 55.514 31.558 56.375 32.048 57.037 32.752 57.499 33.669 57.961 34.586 58.192 35.661 58.192 36.893 Z"/>
 </defs>
 <use id="o" xlink:href="#path-18" fill="#000000" fill-opacity="1" stroke="none"/>
 <use id="o-1" xlink:href="#path-18" fill="#ffffff" fill-opacity="1" stroke="none"/>
 <defs>
  <path id="path-19" d="M40.361 42.995 C38.982 42.995 37.9 42.494 37.116 41.493 L36.948 41.493 C37.06 42.473 37.116 43.04 37.116 43.194 L37.116 47.951 33.913 47.951 33.913 31.044 36.517 31.044 36.969 32.567 37.116 32.567 C37.865 31.404 38.975 30.823 40.445 30.823 41.831 30.823 42.916 31.359 43.7 32.43 44.485 33.501 44.877 34.989 44.877 36.893 44.877 38.146 44.693 39.235 44.325 40.159 43.958 41.083 43.434 41.787 42.755 42.27 42.076 42.753 41.278 42.995 40.361 42.995 Z M39.416 33.386 C38.625 33.386 38.047 33.629 37.683 34.116 37.319 34.602 37.13 35.406 37.116 36.526 L37.116 36.872 C37.116 38.132 37.303 39.036 37.678 39.582 38.052 40.128 38.646 40.401 39.458 40.401 40.893 40.401 41.611 39.218 41.611 36.851 41.611 35.696 41.434 34.83 41.08 34.252 40.727 33.674 40.172 33.386 39.416 33.386 Z"/>
 </defs>
 <use id="p-2" xlink:href="#path-19" fill="#000000" fill-opacity="1" stroke="none"/>
 <use id="p-3" xlink:href="#path-19" fill="#ffffff" fill-opacity="1" stroke="none"/>
 <defs>
  <path id="path-20" d="M31.414 39.298 C31.414 40.502 30.995 41.419 30.159 42.049 29.322 42.679 28.071 42.994 26.404 42.994 25.55 42.994 24.822 42.937 24.22 42.821 23.618 42.706 23.054 42.536 22.529 42.312 L22.529 39.665 C23.125 39.945 23.795 40.18 24.54 40.369 25.286 40.558 25.942 40.653 26.51 40.653 27.672 40.653 28.253 40.317 28.253 39.644 28.253 39.392 28.176 39.188 28.022 39.03 27.868 38.873 27.602 38.694 27.224 38.495 26.846 38.295 26.341 38.062 25.711 37.796 24.808 37.418 24.145 37.068 23.721 36.746 23.298 36.424 22.99 36.055 22.797 35.638 22.605 35.222 22.508 34.709 22.508 34.1 22.508 33.057 22.913 32.25 23.721 31.679 24.53 31.109 25.676 30.823 27.161 30.823 28.575 30.823 29.95 31.131 31.288 31.747 L30.322 34.058 C29.733 33.806 29.184 33.599 28.673 33.438 28.162 33.277 27.64 33.197 27.108 33.197 26.163 33.197 25.69 33.452 25.69 33.963 25.69 34.25 25.843 34.499 26.147 34.709 26.452 34.919 27.119 35.23 28.148 35.643 29.065 36.014 29.737 36.361 30.164 36.683 30.591 37.005 30.906 37.376 31.109 37.796 31.312 38.216 31.414 38.717 31.414 39.298 Z"/>
 </defs>
 <use id="s-4" xlink:href="#path-20" fill="#000000" fill-opacity="1" stroke="none"/>
 <use id="s-5" xlink:href="#path-20" fill="#ffffff" fill-opacity="1" stroke="none"/>
 <defs>
  <path id="path-21" d="M15.378 33.102 C14.699 33.102 14.167 33.317 13.782 33.748 13.397 34.178 13.176 34.789 13.12 35.58 L17.615 35.58 C17.601 34.789 17.394 34.178 16.995 33.748 16.596 33.317 16.057 33.102 15.378 33.102 Z M15.83 42.994 C13.939 42.994 12.462 42.473 11.398 41.43 10.334 40.387 9.802 38.909 9.802 36.998 9.802 35.031 10.294 33.51 11.277 32.435 12.261 31.361 13.621 30.823 15.357 30.823 17.016 30.823 18.308 31.296 19.232 32.241 20.156 33.186 20.618 34.492 20.618 36.158 L20.618 37.712 13.047 37.712 C13.082 38.622 13.351 39.333 13.855 39.844 14.359 40.355 15.067 40.611 15.977 40.611 16.684 40.611 17.352 40.537 17.982 40.39 18.613 40.243 19.271 40.009 19.957 39.686 L19.957 42.165 C19.397 42.445 18.798 42.653 18.161 42.79 17.524 42.926 16.747 42.994 15.83 42.994 Z"/>
 </defs>
 <use id="e-6" xlink:href="#path-21" fill="#000000" fill-opacity="1" stroke="none"/>
 <use id="e-7" xlink:href="#path-21" fill="#ffffff" fill-opacity="1" stroke="none"/>
 <defs>
  <path id="path-22" d="M7.733 30.823 C8.167 30.823 8.528 30.855 8.815 30.918 L8.573 33.921 C8.314 33.851 7.999 33.816 7.628 33.816 6.606 33.816 5.81 34.079 5.239 34.604 4.668 35.129 4.383 35.864 4.383 36.809 L4.383 42.785 1.18 42.785 1.18 31.044 3.606 31.044 4.079 33.018 4.236 33.018 C4.6 32.36 5.092 31.83 5.712 31.427 6.331 31.025 7.005 30.823 7.733 30.823 Z"/>
 </defs>
 <use id="r-2" xlink:href="#path-22" fill="#000000" fill-opacity="1" stroke="none"/>
 <use id="r-3" xlink:href="#path-22" fill="#ffffff" fill-opacity="1" stroke="none"/>
 <defs>
  <path id="path-23" d="M169.822 17.514 C169.822 18.718 169.404 19.635 168.568 20.265 167.731 20.895 166.479 21.21 164.813 21.21 163.959 21.21 163.231 21.152 162.629 21.037 162.027 20.921 161.463 20.752 160.938 20.527 L160.938 17.881 C161.533 18.161 162.204 18.396 162.949 18.585 163.695 18.774 164.351 18.868 164.918 18.868 166.08 18.868 166.661 18.532 166.661 17.86 166.661 17.608 166.584 17.403 166.43 17.246 166.276 17.088 166.01 16.91 165.632 16.71 165.254 16.511 164.75 16.278 164.12 16.012 163.217 15.634 162.554 15.284 162.13 14.962 161.707 14.64 161.399 14.27 161.206 13.854 161.013 13.437 160.917 12.924 160.917 12.315 160.917 11.272 161.322 10.465 162.13 9.895 162.939 9.324 164.085 9.039 165.569 9.039 166.984 9.039 168.359 9.347 169.696 9.963 L168.73 12.273 C168.142 12.021 167.593 11.815 167.082 11.654 166.57 11.493 166.049 11.412 165.517 11.412 164.572 11.412 164.099 11.668 164.099 12.179 164.099 12.466 164.251 12.714 164.556 12.924 164.86 13.135 165.527 13.446 166.557 13.859 167.474 14.23 168.146 14.577 168.573 14.899 169 15.221 169.315 15.592 169.518 16.012 169.721 16.432 169.822 16.932 169.822 17.514 Z"/>
 </defs>
 <use id="s-6" xlink:href="#path-23" fill="#000000" fill-opacity="1" stroke="none"/>
 <use id="s-7" xlink:href="#path-23" fill="#ffffff" fill-opacity="1" stroke="none"/>
 <defs>
  <path id="path-24" d="M153.787 11.318 C153.108 11.318 152.575 11.533 152.19 11.964 151.805 12.394 151.585 13.005 151.529 13.796 L156.023 13.796 C156.009 13.005 155.803 12.394 155.404 11.964 155.005 11.533 154.466 11.318 153.787 11.318 Z M154.238 21.21 C152.348 21.21 150.871 20.688 149.807 19.645 148.742 18.602 148.21 17.125 148.21 15.214 148.21 13.246 148.702 11.725 149.686 10.651 150.669 9.576 152.029 9.039 153.766 9.039 155.425 9.039 156.717 9.511 157.641 10.457 158.565 11.402 159.027 12.707 159.027 14.374 L159.027 15.928 151.455 15.928 C151.49 16.838 151.76 17.549 152.264 18.06 152.768 18.571 153.475 18.826 154.385 18.826 155.092 18.826 155.761 18.753 156.391 18.606 157.021 18.459 157.679 18.224 158.365 17.902 L158.365 20.38 C157.805 20.661 157.207 20.869 156.569 21.005 155.932 21.142 155.155 21.21 154.238 21.21 Z"/>
 </defs>
 <use id="e-8" xlink:href="#path-24" fill="#000000" fill-opacity="1" stroke="none"/>
 <use id="e-9" xlink:href="#path-24" fill="#ffffff" fill-opacity="1" stroke="none"/>
 <defs>
  <path id="path-25" d="M145.564 21 L142.361 21 142.361 4.66 145.564 4.66 Z"/>
 </defs>
 <use id="l-2" xlink:href="#path-25" fill="#000000" fill-opacity="1" stroke="none"/>
 <use id="l-3" xlink:href="#path-25" fill="#ffffff" fill-opacity="1" stroke="none"/>
 <defs>
  <path id="path-26" d="M136.827 21 L136.207 19.404 136.123 19.404 C135.584 20.083 135.03 20.554 134.459 20.816 133.888 21.079 133.144 21.21 132.227 21.21 131.1 21.21 130.213 20.888 129.565 20.244 128.918 19.6 128.594 18.683 128.594 17.493 128.594 16.246 129.03 15.328 129.901 14.736 130.773 14.145 132.087 13.817 133.845 13.754 L135.882 13.691 135.882 13.177 C135.882 11.986 135.273 11.391 134.055 11.391 133.116 11.391 132.014 11.675 130.747 12.242 L129.686 10.079 C131.037 9.372 132.535 9.018 134.181 9.018 135.756 9.018 136.964 9.361 137.804 10.047 138.644 10.733 139.064 11.776 139.064 13.177 L139.064 21 Z M135.882 15.56 L134.643 15.602 C133.712 15.63 133.018 15.798 132.563 16.106 132.108 16.415 131.881 16.884 131.881 17.514 131.881 18.417 132.399 18.868 133.435 18.868 134.177 18.868 134.77 18.655 135.215 18.228 135.66 17.801 135.882 17.234 135.882 16.527 Z"/>
 </defs>
 <use id="a-4" xlink:href="#path-26" fill="#000000" fill-opacity="1" stroke="none"/>
 <use id="a-5" xlink:href="#path-26" fill="#ffffff" fill-opacity="1" stroke="none"/>
 <defs>
  <path id="path-27" d="M126.073 21 L122.871 21 122.871 14.143 C122.871 13.296 122.72 12.66 122.419 12.237 122.118 11.813 121.638 11.601 120.98 11.601 120.084 11.601 119.437 11.901 119.038 12.499 118.639 13.098 118.439 14.09 118.439 15.476 L118.439 21 115.236 21 115.236 9.259 117.683 9.259 118.113 10.761 118.292 10.761 C118.649 10.194 119.141 9.765 119.767 9.475 120.394 9.184 121.106 9.039 121.904 9.039 123.27 9.039 124.306 9.408 125.013 10.147 125.72 10.885 126.073 11.951 126.073 13.344 Z"/>
 </defs>
 <use id="n-2" xlink:href="#path-27" fill="#000000" fill-opacity="1" stroke="none"/>
 <use id="n-3" xlink:href="#path-27" fill="#ffffff" fill-opacity="1" stroke="none"/>
 <defs>
  <path id="path-28" d="M104.472 15.109 C104.472 16.271 104.663 17.15 105.044 17.745 105.426 18.34 106.047 18.637 106.908 18.637 107.763 18.637 108.377 18.341 108.751 17.75 109.126 17.158 109.313 16.278 109.313 15.109 109.313 13.947 109.124 13.075 108.746 12.494 108.368 11.913 107.749 11.622 106.887 11.622 106.033 11.622 105.417 11.911 105.039 12.489 104.661 13.066 104.472 13.94 104.472 15.109 Z M112.59 15.109 C112.59 17.02 112.086 18.515 111.078 19.593 110.069 20.671 108.666 21.21 106.866 21.21 105.739 21.21 104.745 20.963 103.884 20.47 103.023 19.976 102.361 19.267 101.899 18.343 101.437 17.419 101.206 16.341 101.206 15.109 101.206 13.19 101.707 11.699 102.708 10.635 103.709 9.571 105.116 9.039 106.929 9.039 108.057 9.039 109.051 9.284 109.912 9.774 110.773 10.264 111.435 10.968 111.897 11.885 112.359 12.802 112.59 13.877 112.59 15.109 Z"/>
 </defs>
 <use id="o-2" xlink:href="#path-28" fill="#000000" fill-opacity="1" stroke="none"/>
 <use id="o-3" xlink:href="#path-28" fill="#ffffff" fill-opacity="1" stroke="none"/>
 <defs>
  <path id="path-29" d="M95.22 6.225 C95.22 5.182 95.801 4.66 96.964 4.66 98.126 4.66 98.707 5.182 98.707 6.225 98.707 6.722 98.561 7.109 98.271 7.385 97.98 7.662 97.545 7.8 96.964 7.8 95.801 7.8 95.22 7.275 95.22 6.225 Z M98.56 21 L95.357 21 95.357 9.26 98.56 9.26 Z"/>
 </defs>
 <use id="i" xlink:href="#path-29" fill="#000000" fill-opacity="1" stroke="none"/>
 <use id="i-1" xlink:href="#path-29" fill="#ffffff" fill-opacity="1" stroke="none"/>
 <defs>
  <path id="path-30" d="M90.967 18.658 C91.527 18.658 92.199 18.536 92.984 18.291 L92.984 20.675 C92.185 21.032 91.205 21.21 90.043 21.21 88.762 21.21 87.829 20.886 87.245 20.239 86.66 19.591 86.368 18.62 86.368 17.325 L86.368 11.664 84.834 11.664 84.834 10.31 86.599 9.239 87.523 6.76 89.571 6.76 89.571 9.26 92.858 9.26 92.858 11.664 89.571 11.664 89.571 17.325 C89.571 17.78 89.698 18.116 89.954 18.333 90.209 18.55 90.547 18.658 90.967 18.658 Z"/>
 </defs>
 <use id="t" xlink:href="#path-30" fill="#000000" fill-opacity="1" stroke="none"/>
 <use id="t-1" xlink:href="#path-30" fill="#ffffff" fill-opacity="1" stroke="none"/>
 <defs>
  <path id="path-31" d="M80.487 21 L79.867 19.404 79.783 19.404 C79.244 20.083 78.689 20.554 78.119 20.816 77.548 21.079 76.804 21.21 75.887 21.21 74.76 21.21 73.873 20.888 73.225 20.244 72.578 19.6 72.254 18.683 72.254 17.493 72.254 16.246 72.69 15.328 73.561 14.736 74.433 14.145 75.747 13.817 77.505 13.754 L79.542 13.691 79.542 13.177 C79.542 11.986 78.933 11.391 77.714 11.391 76.776 11.391 75.674 11.675 74.406 12.242 L73.346 10.079 C74.697 9.372 76.195 9.018 77.841 9.018 79.416 9.018 80.623 9.361 81.464 10.047 82.304 10.733 82.724 11.776 82.724 13.177 L82.724 21 Z M79.542 15.56 L78.303 15.602 C77.371 15.63 76.678 15.798 76.223 16.106 75.768 16.415 75.541 16.884 75.541 17.514 75.541 18.417 76.059 18.868 77.095 18.868 77.837 18.868 78.43 18.655 78.875 18.228 79.319 17.801 79.542 17.234 79.542 16.527 Z"/>
 </defs>
 <use id="a-6" xlink:href="#path-31" fill="#000000" fill-opacity="1" stroke="none"/>
 <use id="a-7" xlink:href="#path-31" fill="#ffffff" fill-opacity="1" stroke="none"/>
 <defs>
  <path id="path-32" d="M69.733 21 L66.53 21 66.53 14.143 C66.53 13.296 66.38 12.66 66.079 12.237 65.778 11.813 65.298 11.601 64.64 11.601 63.744 11.601 63.096 11.901 62.697 12.499 62.298 13.098 62.099 14.09 62.099 15.476 L62.099 21 58.896 21 58.896 9.259 61.343 9.259 61.773 10.761 61.952 10.761 C62.309 10.194 62.801 9.765 63.427 9.475 64.054 9.184 64.766 9.039 65.564 9.039 66.929 9.039 67.966 9.408 68.673 10.147 69.38 10.885 69.733 11.951 69.733 13.344 Z"/>
 </defs>
 <use id="n-4" xlink:href="#path-32" fill="#000000" fill-opacity="1" stroke="none"/>
 <use id="n-5" xlink:href="#path-32" fill="#ffffff" fill-opacity="1" stroke="none"/>
 <defs>
  <path id="path-33" d="M52.196 6.225 C52.196 5.182 52.777 4.66 53.939 4.66 55.101 4.66 55.682 5.182 55.682 6.225 55.682 6.722 55.537 7.109 55.247 7.385 54.956 7.662 54.52 7.8 53.939 7.8 52.777 7.8 52.196 7.275 52.196 6.225 Z M55.536 21 L52.333 21 52.333 9.26 55.536 9.26 Z"/>
 </defs>
 <use id="i-2" xlink:href="#path-33" fill="#000000" fill-opacity="1" stroke="none"/>
 <use id="i-3" xlink:href="#path-33" fill="#ffffff" fill-opacity="1" stroke="none"/>
 <defs>
  <path id="path-34" d="M47.943 18.658 C48.503 18.658 49.175 18.536 49.959 18.291 L49.959 20.675 C49.161 21.032 48.181 21.21 47.019 21.21 45.738 21.21 44.805 20.886 44.22 20.239 43.635 19.591 43.343 18.62 43.343 17.325 L43.343 11.664 41.81 11.664 41.81 10.31 43.574 9.239 44.498 6.76 46.546 6.76 46.546 9.26 49.833 9.26 49.833 11.664 46.546 11.664 46.546 17.325 C46.546 17.78 46.674 18.116 46.929 18.333 47.185 18.55 47.523 18.658 47.943 18.658 Z"/>
 </defs>
 <use id="t-2" xlink:href="#path-34" fill="#000000" fill-opacity="1" stroke="none"/>
 <use id="t-3" xlink:href="#path-34" fill="#ffffff" fill-opacity="1" stroke="none"/>
 <defs>
  <path id="path-35" d="M39.636 21 L36.433 21 36.433 4.66 39.636 4.66 Z"/>
 </defs>
 <use id="l-4" xlink:href="#path-35" fill="#000000" fill-opacity="1" stroke="none"/>
 <use id="l-5" xlink:href="#path-35" fill="#ffffff" fill-opacity="1" stroke="none"/>
 <defs>
  <path id="path-36" d="M30.616 21 L30.185 19.498 30.017 19.498 C29.674 20.045 29.187 20.466 28.557 20.764 27.927 21.061 27.21 21.21 26.404 21.21 25.025 21.21 23.986 20.841 23.286 20.102 22.585 19.364 22.235 18.301 22.235 16.915 L22.235 9.26 25.438 9.26 25.438 16.117 C25.438 16.964 25.589 17.599 25.89 18.023 26.191 18.447 26.671 18.658 27.329 18.658 28.225 18.658 28.872 18.359 29.271 17.76 29.67 17.162 29.87 16.17 29.87 14.783 L29.87 9.26 33.073 9.26 33.073 21 Z"/>
 </defs>
 <use id="u-2" xlink:href="#path-36" fill="#000000" fill-opacity="1" stroke="none"/>
 <use id="u-3" xlink:href="#path-36" fill="#ffffff" fill-opacity="1" stroke="none"/>
 <defs>
  <path id="path-37" d="M11.692 21 L8.489 21 8.489 14.143 C8.489 13.296 8.347 12.66 8.064 12.237 7.78 11.813 7.334 11.601 6.725 11.601 5.906 11.601 5.311 11.902 4.94 12.504 4.568 13.106 4.383 14.097 4.383 15.476 L4.383 21 1.18 21 1.18 9.259 3.627 9.259 4.057 10.761 4.236 10.761 C4.551 10.222 5.006 9.8 5.601 9.496 6.196 9.191 6.879 9.039 7.649 9.039 9.406 9.039 10.596 9.613 11.219 10.761 L11.503 10.761 C11.818 10.215 12.282 9.792 12.894 9.49 13.507 9.189 14.198 9.039 14.969 9.039 16.299 9.039 17.305 9.38 17.988 10.063 18.67 10.745 19.012 11.839 19.012 13.344 L19.012 21 15.798 21 15.798 14.143 C15.798 13.296 15.656 12.66 15.373 12.237 15.089 11.813 14.643 11.601 14.034 11.601 13.25 11.601 12.663 11.881 12.275 12.441 11.886 13.001 11.692 13.891 11.692 15.109 Z"/>
 </defs>
 <use id="m" xlink:href="#path-37" fill="#000000" fill-opacity="1" stroke="none"/>
 <use id="m-1" xlink:href="#path-37" fill="#ffffff" fill-opacity="1" stroke="none"/>
</svg>
