<?xml version="1.0" encoding="UTF-8"?>
<svg width="277px" height="50px" viewBox="0 0 277 50" xmlns="http://www.w3.org/2000/svg" xmlns:xlink="http://www.w3.org/1999/xlink" version="1.1">
 <!-- Generated by Pixelmator Pro 1.3.4 -->
 <defs>
  <path id="path" d="M228.529 42.5 C228.529 41.898 228.69 41.443 229.013 41.135 229.335 40.827 229.804 40.673 230.42 40.673 231.014 40.673 231.474 40.831 231.8 41.146 232.126 41.461 232.289 41.912 232.289 42.5 232.289 43.065 232.124 43.511 231.795 43.837 231.465 44.163 231.007 44.326 230.42 44.326 229.818 44.326 229.353 44.166 229.023 43.848 228.694 43.529 228.529 43.08 228.529 42.5 Z"/>
 </defs>
 <use id="-" xlink:href="#path" fill="#000000" fill-opacity="1" stroke="none"/>
 <use id="--1" xlink:href="#path" fill="#ffffff" fill-opacity="1" stroke="none"/>
 <defs>
  <path id="path-1" d="M222.256 42.5 C222.256 41.898 222.417 41.443 222.739 41.135 223.062 40.827 223.531 40.673 224.146 40.673 224.741 40.673 225.201 40.831 225.527 41.146 225.853 41.461 226.016 41.912 226.016 42.5 226.016 43.065 225.851 43.511 225.521 43.837 225.192 44.163 224.734 44.326 224.146 44.326 223.545 44.326 223.079 44.166 222.75 43.848 222.421 43.529 222.256 43.08 222.256 42.5 Z"/>
 </defs>
 <use id="--2" xlink:href="#path-1" fill="#000000" fill-opacity="1" stroke="none"/>
 <use id="--3" xlink:href="#path-1" fill="#ffffff" fill-opacity="1" stroke="none"/>
 <defs>
  <path id="path-2" d="M215.982 42.5 C215.982 41.898 216.143 41.443 216.466 41.135 216.788 40.827 217.257 40.673 217.873 40.673 218.467 40.673 218.927 40.831 219.253 41.146 219.579 41.461 219.742 41.912 219.742 42.5 219.742 43.065 219.577 43.511 219.248 43.837 218.919 44.163 218.46 44.326 217.873 44.326 217.271 44.326 216.806 44.166 216.477 43.848 216.147 43.529 215.982 43.08 215.982 42.5 Z"/>
 </defs>
 <use id="--4" xlink:href="#path-2" fill="#000000" fill-opacity="1" stroke="none"/>
 <use id="--5" xlink:href="#path-2" fill="#ffffff" fill-opacity="1" stroke="none"/>
 <defs>
  <path id="path-3" d="M208.42 34.131 C207.725 34.131 207.181 34.351 206.787 34.792 206.393 35.232 206.168 35.857 206.11 36.666 L210.708 36.666 C210.694 35.857 210.482 35.232 210.074 34.792 209.666 34.351 209.115 34.131 208.42 34.131 Z M208.882 44.25 C206.948 44.25 205.437 43.717 204.349 42.65 203.26 41.583 202.716 40.072 202.716 38.117 202.716 36.104 203.219 34.548 204.225 33.449 205.231 32.35 206.622 31.8 208.398 31.8 210.096 31.8 211.417 32.284 212.362 33.25 213.308 34.217 213.78 35.553 213.78 37.257 L213.78 38.847 206.035 38.847 C206.071 39.778 206.347 40.505 206.862 41.028 207.378 41.551 208.101 41.812 209.032 41.812 209.755 41.812 210.439 41.737 211.084 41.586 211.729 41.436 212.402 41.196 213.104 40.867 L213.104 43.402 C212.531 43.688 211.918 43.901 211.267 44.041 210.615 44.181 209.82 44.25 208.882 44.25 Z M206.529 30.704 L206.529 30.414 C207.761 28.982 208.602 27.904 209.054 27.181 L212.728 27.181 212.728 27.407 C212.355 27.779 211.719 28.332 210.821 29.066 209.922 29.8 209.218 30.346 208.71 30.704 Z"/>
 </defs>
 <use id="é" xlink:href="#path-3" fill="#000000" fill-opacity="1" stroke="none"/>
 <use id="é-1" xlink:href="#path-3" fill="#ffffff" fill-opacity="1" stroke="none"/>
 <defs>
  <path id="path-4" d="M200.073 44.036 L196.797 44.036 196.797 37.021 C196.797 35.288 196.152 34.421 194.863 34.421 193.947 34.421 193.284 34.733 192.876 35.356 192.468 35.979 192.264 36.989 192.264 38.385 L192.264 44.036 188.987 44.036 188.987 27.321 192.264 27.321 192.264 30.726 C192.264 30.991 192.239 31.614 192.188 32.595 L192.113 33.562 192.285 33.562 C193.016 32.388 194.176 31.8 195.766 31.8 197.176 31.8 198.247 32.18 198.978 32.939 199.708 33.698 200.073 34.787 200.073 36.205 Z"/>
 </defs>
 <use id="h" xlink:href="#path-4" fill="#000000" fill-opacity="1" stroke="none"/>
 <use id="h-1" xlink:href="#path-4" fill="#ffffff" fill-opacity="1" stroke="none"/>
 <defs>
  <path id="path-5" d="M182.553 44.25 C178.814 44.25 176.945 42.199 176.945 38.095 176.945 36.054 177.454 34.495 178.471 33.417 179.488 32.339 180.945 31.8 182.843 31.8 184.232 31.8 185.478 32.072 186.581 32.617 L185.614 35.152 C185.099 34.944 184.619 34.774 184.175 34.641 183.731 34.509 183.287 34.443 182.843 34.443 181.138 34.443 180.286 35.653 180.286 38.074 180.286 40.423 181.138 41.597 182.843 41.597 183.473 41.597 184.057 41.513 184.594 41.345 185.131 41.176 185.668 40.913 186.205 40.555 L186.205 43.359 C185.675 43.695 185.14 43.928 184.599 44.057 184.058 44.186 183.376 44.25 182.553 44.25 Z"/>
 </defs>
 <use id="c" xlink:href="#path-5" fill="#000000" fill-opacity="1" stroke="none"/>
 <use id="c-1" xlink:href="#path-5" fill="#ffffff" fill-opacity="1" stroke="none"/>
 <defs>
  <path id="path-6" d="M174.829 31.8 C175.273 31.8 175.642 31.832 175.936 31.897 L175.688 34.969 C175.423 34.898 175.101 34.862 174.722 34.862 173.676 34.862 172.861 35.13 172.278 35.667 171.694 36.204 171.402 36.956 171.402 37.923 L171.402 44.036 168.126 44.036 168.126 32.026 170.607 32.026 171.091 34.045 171.252 34.045 C171.624 33.372 172.127 32.83 172.761 32.418 173.395 32.006 174.084 31.8 174.829 31.8 Z"/>
 </defs>
 <use id="r" xlink:href="#path-6" fill="#000000" fill-opacity="1" stroke="none"/>
 <use id="r-1" xlink:href="#path-6" fill="#ffffff" fill-opacity="1" stroke="none"/>
 <defs>
  <path id="path-7" d="M160.102 34.131 C159.407 34.131 158.863 34.351 158.469 34.792 158.075 35.232 157.849 35.857 157.792 36.666 L162.39 36.666 C162.375 35.857 162.164 35.232 161.756 34.792 161.348 34.351 160.796 34.131 160.102 34.131 Z M160.563 44.25 C158.63 44.25 157.119 43.717 156.03 42.65 154.942 41.583 154.397 40.072 154.397 38.117 154.397 36.104 154.901 34.548 155.907 33.449 156.913 32.35 158.304 31.8 160.08 31.8 161.777 31.8 163.099 32.284 164.044 33.25 164.989 34.217 165.462 35.553 165.462 37.257 L165.462 38.847 157.717 38.847 C157.753 39.778 158.028 40.505 158.544 41.028 159.06 41.551 159.783 41.812 160.714 41.812 161.437 41.812 162.121 41.737 162.766 41.586 163.41 41.436 164.083 41.196 164.785 40.867 L164.785 43.402 C164.212 43.688 163.6 43.901 162.948 44.041 162.297 44.181 161.502 44.25 160.563 44.25 Z"/>
 </defs>
 <use id="e" xlink:href="#path-7" fill="#000000" fill-opacity="1" stroke="none"/>
 <use id="e-1" xlink:href="#path-7" fill="#ffffff" fill-opacity="1" stroke="none"/>
 <defs>
  <path id="path-8" d="M147.802 44.25 C146.391 44.25 145.284 43.738 144.482 42.714 L144.311 42.714 C144.425 43.717 144.482 44.297 144.482 44.454 L144.482 49.321 141.206 49.321 141.206 32.026 143.87 32.026 144.332 33.583 144.482 33.583 C145.249 32.395 146.384 31.8 147.888 31.8 149.306 31.8 150.416 32.348 151.218 33.444 152.02 34.539 152.421 36.061 152.421 38.009 152.421 39.291 152.233 40.405 151.857 41.35 151.481 42.295 150.946 43.015 150.251 43.509 149.556 44.003 148.74 44.25 147.802 44.25 Z M146.835 34.421 C146.026 34.421 145.435 34.67 145.063 35.168 144.69 35.666 144.497 36.487 144.482 37.633 L144.482 37.988 C144.482 39.277 144.674 40.201 145.057 40.759 145.44 41.318 146.047 41.597 146.878 41.597 148.346 41.597 149.08 40.387 149.08 37.966 149.08 36.785 148.899 35.898 148.538 35.307 148.176 34.717 147.608 34.421 146.835 34.421 Z"/>
 </defs>
 <use id="p" xlink:href="#path-8" fill="#000000" fill-opacity="1" stroke="none"/>
 <use id="p-1" xlink:href="#path-8" fill="#ffffff" fill-opacity="1" stroke="none"/>
 <defs>
  <text id="string" transform="matrix(1.0 0.0 0.0 1.0 129.2724609375 20.035511363639998)">
   <tspan x="4.5" y="24.0" font-family="OpenSansBold, OpenSansBold" font-size="22" text-decoration="none"> </tspan>
  </text>
 </defs>
 <use id="--6" xlink:href="#string" fill="#ffffff" fill-opacity="1" stroke="none"/>
 <defs>
  <path id="path-9" d="M128.638 28.921 C128.638 27.854 129.232 27.321 130.421 27.321 131.61 27.321 132.204 27.854 132.204 28.921 132.204 29.43 132.055 29.826 131.758 30.108 131.461 30.391 131.015 30.533 130.421 30.533 129.232 30.533 128.638 29.996 128.638 28.921 Z M132.054 44.036 L128.777 44.036 128.777 32.026 132.054 32.026 Z"/>
 </defs>
 <use id="i" xlink:href="#path-9" fill="#000000" fill-opacity="1" stroke="none"/>
 <use id="i-1" xlink:href="#path-9" fill="#ffffff" fill-opacity="1" stroke="none"/>
 <defs>
  <path id="path-10" d="M125.34 44.036 L122.063 44.036 122.063 27.321 125.34 27.321 Z"/>
 </defs>
 <use id="l" xlink:href="#path-10" fill="#000000" fill-opacity="1" stroke="none"/>
 <use id="l-1" xlink:href="#path-10" fill="#ffffff" fill-opacity="1" stroke="none"/>
 <defs>
  <path id="path-11" d="M115.21 28.921 C115.21 27.854 115.804 27.321 116.993 27.321 118.182 27.321 118.776 27.854 118.776 28.921 118.776 29.43 118.628 29.826 118.331 30.108 118.033 30.391 117.588 30.533 116.993 30.533 115.804 30.533 115.21 29.996 115.21 28.921 Z M118.626 44.036 L115.35 44.036 115.35 32.026 118.626 32.026 Z"/>
 </defs>
 <use id="i-2" xlink:href="#path-11" fill="#000000" fill-opacity="1" stroke="none"/>
 <use id="i-3" xlink:href="#path-11" fill="#ffffff" fill-opacity="1" stroke="none"/>
 <defs>
  <path id="path-12" d="M108.109 31.8 C109.527 31.8 110.637 32.354 111.439 33.46 112.241 34.566 112.643 36.083 112.643 38.009 112.643 39.993 112.229 41.529 111.402 42.618 110.575 43.706 109.448 44.25 108.023 44.25 106.613 44.25 105.506 43.739 104.704 42.714 L104.479 42.714 103.931 44.036 101.428 44.036 101.428 27.321 104.704 27.321 104.704 31.209 C104.704 31.704 104.661 32.495 104.575 33.583 L104.704 33.583 C105.47 32.395 106.605 31.8 108.109 31.8 Z M107.057 34.421 C106.247 34.421 105.656 34.67 105.284 35.168 104.912 35.666 104.718 36.488 104.704 37.633 L104.704 37.988 C104.704 39.277 104.896 40.201 105.279 40.759 105.662 41.318 106.269 41.597 107.1 41.597 107.773 41.597 108.308 41.287 108.706 40.668 109.103 40.049 109.302 39.148 109.302 37.966 109.302 36.785 109.101 35.898 108.7 35.308 108.299 34.717 107.751 34.421 107.057 34.421 Z"/>
 </defs>
 <use id="b" xlink:href="#path-12" fill="#000000" fill-opacity="1" stroke="none"/>
 <use id="b-1" xlink:href="#path-12" fill="#ffffff" fill-opacity="1" stroke="none"/>
 <defs>
  <path id="path-13" d="M95.767 44.036 L95.133 42.403 95.047 42.403 C94.495 43.097 93.928 43.579 93.344 43.848 92.76 44.116 92 44.25 91.062 44.25 89.908 44.25 89.001 43.921 88.338 43.262 87.676 42.603 87.345 41.665 87.345 40.448 87.345 39.173 87.79 38.233 88.682 37.628 89.574 37.023 90.918 36.688 92.716 36.623 L94.8 36.559 94.8 36.033 C94.8 34.815 94.177 34.206 92.931 34.206 91.971 34.206 90.843 34.496 89.547 35.077 L88.462 32.864 C89.844 32.14 91.377 31.779 93.06 31.779 94.671 31.779 95.906 32.13 96.766 32.831 97.625 33.533 98.055 34.6 98.055 36.033 L98.055 44.036 Z M94.8 38.471 L93.532 38.514 C92.58 38.543 91.871 38.715 91.405 39.03 90.94 39.345 90.707 39.825 90.707 40.469 90.707 41.393 91.237 41.855 92.297 41.855 93.056 41.855 93.663 41.636 94.118 41.2 94.572 40.763 94.8 40.183 94.8 39.459 Z"/>
 </defs>
 <use id="a" xlink:href="#path-13" fill="#000000" fill-opacity="1" stroke="none"/>
 <use id="a-1" xlink:href="#path-13" fill="#ffffff" fill-opacity="1" stroke="none"/>
 <defs>
  <path id="path-14" d="M85.583 40.469 C85.583 41.701 85.155 42.639 84.299 43.284 83.443 43.928 82.163 44.25 80.459 44.25 79.585 44.25 78.84 44.191 78.225 44.073 77.609 43.955 77.032 43.781 76.495 43.552 L76.495 40.845 C77.104 41.132 77.789 41.371 78.552 41.565 79.315 41.758 79.986 41.855 80.566 41.855 81.755 41.855 82.35 41.511 82.35 40.824 82.35 40.566 82.271 40.356 82.113 40.195 81.956 40.034 81.684 39.851 81.297 39.647 80.91 39.443 80.395 39.205 79.75 38.933 78.826 38.546 78.148 38.188 77.714 37.859 77.281 37.529 76.966 37.152 76.769 36.725 76.572 36.299 76.474 35.775 76.474 35.152 76.474 34.085 76.887 33.259 77.714 32.676 78.542 32.092 79.714 31.8 81.232 31.8 82.679 31.8 84.086 32.115 85.454 32.745 L84.466 35.109 C83.864 34.851 83.302 34.64 82.779 34.475 82.256 34.31 81.723 34.228 81.179 34.228 80.212 34.228 79.729 34.489 79.729 35.012 79.729 35.306 79.884 35.56 80.196 35.775 80.507 35.99 81.189 36.308 82.242 36.731 83.18 37.11 83.868 37.465 84.305 37.794 84.741 38.124 85.064 38.503 85.271 38.933 85.479 39.363 85.583 39.875 85.583 40.469 Z"/>
 </defs>
 <use id="s" xlink:href="#path-14" fill="#000000" fill-opacity="1" stroke="none"/>
 <use id="s-1" xlink:href="#path-14" fill="#ffffff" fill-opacity="1" stroke="none"/>
 <defs>
  <path id="path-15" d="M73.831 44.036 L70.555 44.036 70.555 37.021 C70.555 36.154 70.401 35.505 70.093 35.071 69.785 34.638 69.294 34.421 68.621 34.421 67.704 34.421 67.042 34.727 66.634 35.34 66.225 35.952 66.021 36.967 66.021 38.385 L66.021 44.036 62.745 44.036 62.745 32.026 65.248 32.026 65.688 33.562 65.871 33.562 C66.236 32.982 66.739 32.543 67.38 32.246 68.021 31.949 68.75 31.8 69.566 31.8 70.963 31.8 72.023 32.178 72.746 32.933 73.469 33.689 73.831 34.779 73.831 36.204 Z"/>
 </defs>
 <use id="n" xlink:href="#path-15" fill="#000000" fill-opacity="1" stroke="none"/>
 <use id="n-1" xlink:href="#path-15" fill="#ffffff" fill-opacity="1" stroke="none"/>
 <defs>
  <path id="path-16" d="M51.734 38.009 C51.734 39.198 51.929 40.097 52.32 40.705 52.71 41.314 53.346 41.619 54.227 41.619 55.1 41.619 55.729 41.316 56.112 40.711 56.495 40.106 56.687 39.205 56.687 38.009 56.687 36.82 56.493 35.929 56.106 35.334 55.72 34.74 55.086 34.443 54.205 34.443 53.331 34.443 52.701 34.738 52.314 35.329 51.928 35.92 51.734 36.813 51.734 38.009 Z M60.038 38.009 C60.038 39.964 59.522 41.493 58.491 42.596 57.46 43.699 56.024 44.25 54.184 44.25 53.031 44.25 52.014 43.998 51.133 43.493 50.252 42.988 49.575 42.263 49.103 41.318 48.63 40.372 48.394 39.27 48.394 38.009 48.394 36.047 48.906 34.522 49.93 33.433 50.954 32.344 52.393 31.8 54.248 31.8 55.401 31.8 56.418 32.051 57.299 32.552 58.18 33.053 58.856 33.773 59.329 34.711 59.802 35.65 60.038 36.749 60.038 38.009 Z"/>
 </defs>
 <use id="o" xlink:href="#path-16" fill="#000000" fill-opacity="1" stroke="none"/>
 <use id="o-1" xlink:href="#path-16" fill="#ffffff" fill-opacity="1" stroke="none"/>
 <defs>
  <path id="path-17" d="M41.798 44.25 C40.387 44.25 39.281 43.738 38.479 42.714 L38.307 42.714 C38.421 43.717 38.479 44.297 38.479 44.454 L38.479 49.321 35.202 49.321 35.202 32.026 37.866 32.026 38.328 33.583 38.479 33.583 C39.245 32.395 40.38 31.8 41.884 31.8 43.302 31.8 44.412 32.348 45.214 33.444 46.016 34.539 46.417 36.061 46.417 38.009 46.417 39.291 46.229 40.405 45.853 41.35 45.477 42.295 44.942 43.015 44.247 43.509 43.552 44.003 42.736 44.25 41.798 44.25 Z M40.831 34.421 C40.022 34.421 39.431 34.67 39.059 35.168 38.686 35.666 38.493 36.487 38.479 37.633 L38.479 37.988 C38.479 39.277 38.67 40.201 39.053 40.759 39.436 41.318 40.043 41.597 40.874 41.597 42.342 41.597 43.076 40.387 43.076 37.966 43.076 36.785 42.895 35.898 42.534 35.307 42.172 34.717 41.604 34.421 40.831 34.421 Z"/>
 </defs>
 <use id="p-2" xlink:href="#path-17" fill="#000000" fill-opacity="1" stroke="none"/>
 <use id="p-3" xlink:href="#path-17" fill="#ffffff" fill-opacity="1" stroke="none"/>
 <defs>
  <path id="path-18" d="M32.646 40.469 C32.646 41.701 32.218 42.639 31.362 43.284 30.506 43.928 29.226 44.25 27.521 44.25 26.648 44.25 25.903 44.191 25.287 44.073 24.671 43.955 24.095 43.781 23.558 43.552 L23.558 40.845 C24.166 41.132 24.852 41.371 25.615 41.565 26.377 41.758 27.049 41.855 27.629 41.855 28.818 41.855 29.412 41.511 29.412 40.824 29.412 40.566 29.333 40.356 29.176 40.195 29.018 40.034 28.746 39.851 28.359 39.647 27.973 39.443 27.457 39.205 26.813 38.933 25.889 38.546 25.21 38.188 24.777 37.859 24.344 37.529 24.028 37.152 23.832 36.725 23.635 36.299 23.536 35.775 23.536 35.152 23.536 34.085 23.95 33.259 24.777 32.676 25.604 32.092 26.777 31.8 28.295 31.8 29.741 31.8 31.149 32.115 32.517 32.745 L31.528 35.109 C30.927 34.851 30.365 34.64 29.842 34.475 29.319 34.31 28.785 34.228 28.241 34.228 27.274 34.228 26.791 34.489 26.791 35.012 26.791 35.306 26.947 35.56 27.258 35.775 27.57 35.99 28.252 36.308 29.305 36.731 30.243 37.11 30.93 37.465 31.367 37.794 31.804 38.124 32.126 38.503 32.334 38.933 32.542 39.363 32.646 39.875 32.646 40.469 Z"/>
 </defs>
 <use id="s-2" xlink:href="#path-18" fill="#000000" fill-opacity="1" stroke="none"/>
 <use id="s-3" xlink:href="#path-18" fill="#ffffff" fill-opacity="1" stroke="none"/>
 <defs>
  <path id="path-19" d="M16.242 34.131 C15.547 34.131 15.003 34.351 14.609 34.792 14.215 35.232 13.99 35.857 13.933 36.666 L18.53 36.666 C18.516 35.857 18.305 35.232 17.896 34.792 17.488 34.351 16.937 34.131 16.242 34.131 Z M16.704 44.25 C14.77 44.25 13.259 43.717 12.171 42.65 11.082 41.583 10.538 40.072 10.538 38.117 10.538 36.104 11.041 34.548 12.047 33.449 13.053 32.35 14.445 31.8 16.221 31.8 17.918 31.8 19.239 32.284 20.185 33.25 21.13 34.217 21.603 35.553 21.603 37.257 L21.603 38.847 13.857 38.847 C13.893 39.778 14.169 40.505 14.685 41.028 15.2 41.551 15.923 41.812 16.854 41.812 17.578 41.812 18.262 41.737 18.906 41.586 19.551 41.436 20.224 41.196 20.926 40.867 L20.926 43.402 C20.353 43.688 19.74 43.901 19.089 44.041 18.437 44.181 17.642 44.25 16.704 44.25 Z"/>
 </defs>
 <use id="e-2" xlink:href="#path-19" fill="#000000" fill-opacity="1" stroke="none"/>
 <use id="e-3" xlink:href="#path-19" fill="#ffffff" fill-opacity="1" stroke="none"/>
 <defs>
  <path id="path-20" d="M8.422 31.8 C8.866 31.8 9.235 31.832 9.528 31.897 L9.281 34.969 C9.016 34.898 8.694 34.862 8.314 34.862 7.269 34.862 6.454 35.13 5.871 35.667 5.287 36.204 4.995 36.956 4.995 37.923 L4.995 44.036 1.719 44.036 1.719 32.026 4.2 32.026 4.684 34.045 4.845 34.045 C5.217 33.372 5.72 32.83 6.354 32.418 6.988 32.006 7.677 31.8 8.422 31.8 Z"/>
 </defs>
 <use id="r-2" xlink:href="#path-20" fill="#000000" fill-opacity="1" stroke="none"/>
 <use id="r-3" xlink:href="#path-20" fill="#ffffff" fill-opacity="1" stroke="none"/>
 <defs>
  <path id="path-21" d="M152.711 6.386 C152.711 5.319 153.305 4.785 154.494 4.785 155.683 4.785 156.277 5.319 156.277 6.386 156.277 6.894 156.129 7.29 155.832 7.573 155.534 7.856 155.089 7.997 154.494 7.997 153.305 7.997 152.711 7.46 152.711 6.386 Z M156.127 21.5 L152.851 21.5 152.851 9.49 156.127 9.49 Z"/>
 </defs>
 <use id="i-4" xlink:href="#path-21" fill="#000000" fill-opacity="1" stroke="none"/>
 <use id="i-5" xlink:href="#path-21" fill="#ffffff" fill-opacity="1" stroke="none"/>
 <defs>
  <path id="path-22" d="M149.413 21.5 L146.137 21.5 146.137 4.785 149.413 4.785 Z"/>
 </defs>
 <use id="l-2" xlink:href="#path-22" fill="#000000" fill-opacity="1" stroke="none"/>
 <use id="l-3" xlink:href="#path-22" fill="#ffffff" fill-opacity="1" stroke="none"/>
 <defs>
  <path id="path-23" d="M140.476 21.5 L139.842 19.867 139.756 19.867 C139.204 20.562 138.637 21.043 138.053 21.312 137.469 21.581 136.709 21.715 135.771 21.715 134.617 21.715 133.71 21.385 133.047 20.727 132.385 20.068 132.054 19.13 132.054 17.912 132.054 16.637 132.499 15.698 133.391 15.092 134.283 14.487 135.627 14.152 137.425 14.088 L139.509 14.023 139.509 13.497 C139.509 12.28 138.886 11.671 137.64 11.671 136.68 11.671 135.552 11.961 134.256 12.541 L133.171 10.328 C134.553 9.605 136.086 9.243 137.769 9.243 139.38 9.243 140.615 9.594 141.475 10.296 142.334 10.998 142.764 12.065 142.764 13.497 L142.764 21.5 Z M139.509 15.936 L138.241 15.979 C137.289 16.007 136.58 16.179 136.114 16.494 135.649 16.809 135.416 17.289 135.416 17.934 135.416 18.858 135.946 19.319 137.006 19.319 137.765 19.319 138.372 19.101 138.827 18.664 139.281 18.227 139.509 17.647 139.509 16.924 Z"/>
 </defs>
 <use id="a-2" xlink:href="#path-23" fill="#000000" fill-opacity="1" stroke="none"/>
 <use id="a-3" xlink:href="#path-23" fill="#ffffff" fill-opacity="1" stroke="none"/>
 <defs>
  <path id="path-24" d="M129.476 21.5 L126.199 21.5 126.199 14.485 C126.199 13.619 126.045 12.969 125.737 12.536 125.429 12.102 124.939 11.886 124.266 11.886 123.349 11.886 122.687 12.192 122.278 12.804 121.87 13.417 121.666 14.432 121.666 15.85 L121.666 21.5 118.39 21.5 118.39 9.49 120.893 9.49 121.333 11.026 121.516 11.026 C121.881 10.446 122.384 10.008 123.025 9.71 123.666 9.413 124.394 9.265 125.211 9.265 126.607 9.265 127.667 9.642 128.391 10.398 129.114 11.154 129.476 12.244 129.476 13.669 Z"/>
 </defs>
 <use id="n-2" xlink:href="#path-24" fill="#000000" fill-opacity="1" stroke="none"/>
 <use id="n-3" xlink:href="#path-24" fill="#ffffff" fill-opacity="1" stroke="none"/>
 <defs>
  <path id="path-25" d="M107.379 15.474 C107.379 16.662 107.574 17.561 107.964 18.17 108.355 18.779 108.99 19.083 109.871 19.083 110.745 19.083 111.373 18.781 111.756 18.175 112.139 17.57 112.331 16.67 112.331 15.474 112.331 14.285 112.138 13.393 111.751 12.799 111.364 12.204 110.73 11.907 109.85 11.907 108.976 11.907 108.346 12.203 107.959 12.793 107.572 13.384 107.379 14.278 107.379 15.474 Z M115.683 15.474 C115.683 17.429 115.167 18.958 114.136 20.061 113.104 21.163 111.669 21.715 109.828 21.715 108.675 21.715 107.658 21.463 106.777 20.958 105.896 20.453 105.22 19.728 104.747 18.782 104.274 17.837 104.038 16.734 104.038 15.474 104.038 13.511 104.55 11.986 105.574 10.897 106.598 9.809 108.038 9.265 109.893 9.265 111.046 9.265 112.062 9.515 112.943 10.017 113.824 10.518 114.501 11.238 114.974 12.176 115.446 13.114 115.683 14.213 115.683 15.474 Z"/>
 </defs>
 <use id="o-2" xlink:href="#path-25" fill="#000000" fill-opacity="1" stroke="none"/>
 <use id="o-3" xlink:href="#path-25" fill="#ffffff" fill-opacity="1" stroke="none"/>
 <defs>
  <path id="path-26" d="M97.915 6.386 C97.915 5.319 98.509 4.785 99.698 4.785 100.887 4.785 101.481 5.319 101.481 6.386 101.481 6.894 101.333 7.29 101.036 7.573 100.738 7.856 100.293 7.997 99.698 7.997 98.509 7.997 97.915 7.46 97.915 6.386 Z M101.331 21.5 L98.055 21.5 98.055 9.49 101.331 9.49 Z"/>
 </defs>
 <use id="i-6" xlink:href="#path-26" fill="#000000" fill-opacity="1" stroke="none"/>
 <use id="i-7" xlink:href="#path-26" fill="#ffffff" fill-opacity="1" stroke="none"/>
 <defs>
  <path id="path-27" d="M93.564 19.104 C94.137 19.104 94.825 18.979 95.627 18.729 L95.627 21.167 C94.81 21.532 93.808 21.715 92.619 21.715 91.308 21.715 90.354 21.384 89.756 20.721 89.158 20.059 88.859 19.065 88.859 17.74 L88.859 11.95 87.291 11.95 87.291 10.564 89.096 9.469 90.041 6.934 92.136 6.934 92.136 9.49 95.498 9.49 95.498 11.95 92.136 11.95 92.136 17.74 C92.136 18.206 92.266 18.55 92.528 18.771 92.789 18.994 93.135 19.104 93.564 19.104 Z"/>
 </defs>
 <use id="t" xlink:href="#path-27" fill="#000000" fill-opacity="1" stroke="none"/>
 <use id="t-1" xlink:href="#path-27" fill="#ffffff" fill-opacity="1" stroke="none"/>
 <defs>
  <path id="path-28" d="M82.844 21.5 L82.21 19.867 82.124 19.867 C81.573 20.562 81.005 21.043 80.421 21.312 79.838 21.581 79.077 21.715 78.139 21.715 76.986 21.715 76.078 21.385 75.416 20.727 74.753 20.068 74.422 19.13 74.422 17.912 74.422 16.637 74.868 15.698 75.759 15.092 76.651 14.487 77.995 14.152 79.793 14.088 L81.877 14.023 81.877 13.497 C81.877 12.28 81.254 11.671 80.008 11.671 79.048 11.671 77.92 11.961 76.624 12.541 L75.539 10.328 C76.921 9.605 78.454 9.243 80.137 9.243 81.748 9.243 82.983 9.594 83.843 10.296 84.702 10.998 85.132 12.065 85.132 13.497 L85.132 21.5 Z M81.877 15.936 L80.609 15.979 C79.657 16.007 78.948 16.179 78.482 16.494 78.017 16.809 77.784 17.289 77.784 17.934 77.784 18.858 78.314 19.319 79.374 19.319 80.133 19.319 80.74 19.101 81.195 18.664 81.65 18.227 81.877 17.647 81.877 16.924 Z"/>
 </defs>
 <use id="a-4" xlink:href="#path-28" fill="#000000" fill-opacity="1" stroke="none"/>
 <use id="a-5" xlink:href="#path-28" fill="#ffffff" fill-opacity="1" stroke="none"/>
 <defs>
  <path id="path-29" d="M71.844 21.5 L68.567 21.5 68.567 14.485 C68.567 13.619 68.413 12.969 68.105 12.536 67.797 12.102 67.307 11.886 66.634 11.886 65.717 11.886 65.055 12.192 64.646 12.804 64.238 13.417 64.034 14.432 64.034 15.85 L64.034 21.5 60.758 21.5 60.758 9.49 63.261 9.49 63.701 11.026 63.884 11.026 C64.249 10.446 64.752 10.008 65.393 9.71 66.034 9.413 66.763 9.265 67.579 9.265 68.976 9.265 70.035 9.642 70.759 10.398 71.482 11.154 71.844 12.244 71.844 13.669 Z"/>
 </defs>
 <use id="n-4" xlink:href="#path-29" fill="#000000" fill-opacity="1" stroke="none"/>
 <use id="n-5" xlink:href="#path-29" fill="#ffffff" fill-opacity="1" stroke="none"/>
 <defs>
  <path id="path-30" d="M53.904 6.386 C53.904 5.319 54.499 4.785 55.688 4.785 56.876 4.785 57.471 5.319 57.471 6.386 57.471 6.894 57.322 7.29 57.025 7.573 56.728 7.856 56.282 7.997 55.688 7.997 54.499 7.997 53.904 7.46 53.904 6.386 Z M57.32 21.5 L54.044 21.5 54.044 9.49 57.32 9.49 Z"/>
 </defs>
 <use id="i-8" xlink:href="#path-30" fill="#000000" fill-opacity="1" stroke="none"/>
 <use id="i-9" xlink:href="#path-30" fill="#ffffff" fill-opacity="1" stroke="none"/>
 <defs>
  <path id="path-31" d="M49.554 19.104 C50.127 19.104 50.814 18.979 51.616 18.729 L51.616 21.167 C50.8 21.532 49.797 21.715 48.608 21.715 47.298 21.715 46.344 21.384 45.746 20.721 45.148 20.059 44.849 19.065 44.849 17.74 L44.849 11.95 43.28 11.95 43.28 10.564 45.085 9.469 46.03 6.934 48.125 6.934 48.125 9.49 51.487 9.49 51.487 11.95 48.125 11.95 48.125 17.74 C48.125 18.206 48.256 18.55 48.517 18.771 48.778 18.994 49.124 19.104 49.554 19.104 Z"/>
 </defs>
 <use id="t-2" xlink:href="#path-31" fill="#000000" fill-opacity="1" stroke="none"/>
 <use id="t-3" xlink:href="#path-31" fill="#ffffff" fill-opacity="1" stroke="none"/>
 <defs>
  <path id="path-32" d="M41.057 21.5 L37.78 21.5 37.78 4.785 41.057 4.785 Z"/>
 </defs>
 <use id="l-4" xlink:href="#path-32" fill="#000000" fill-opacity="1" stroke="none"/>
 <use id="l-5" xlink:href="#path-32" fill="#ffffff" fill-opacity="1" stroke="none"/>
 <defs>
  <path id="path-33" d="M31.829 21.5 L31.389 19.964 31.217 19.964 C30.866 20.523 30.368 20.954 29.724 21.258 29.079 21.563 28.345 21.715 27.521 21.715 26.111 21.715 25.047 21.337 24.331 20.582 23.615 19.826 23.257 18.739 23.257 17.321 L23.257 9.49 26.533 9.49 26.533 16.505 C26.533 17.371 26.687 18.021 26.995 18.455 27.303 18.888 27.794 19.104 28.467 19.104 29.383 19.104 30.046 18.798 30.454 18.186 30.862 17.574 31.066 16.559 31.066 15.141 L31.066 9.49 34.343 9.49 34.343 21.5 Z"/>
 </defs>
 <use id="u" xlink:href="#path-33" fill="#000000" fill-opacity="1" stroke="none"/>
 <use id="u-1" xlink:href="#path-33" fill="#ffffff" fill-opacity="1" stroke="none"/>
 <defs>
  <path id="path-34" d="M12.472 21.5 L9.195 21.5 9.195 14.485 C9.195 13.619 9.05 12.969 8.76 12.536 8.47 12.102 8.014 11.886 7.391 11.886 6.553 11.886 5.944 12.194 5.564 12.81 5.185 13.426 4.995 14.439 4.995 15.85 L4.995 21.5 1.719 21.5 1.719 9.49 4.222 9.49 4.662 11.026 4.845 11.026 C5.167 10.475 5.632 10.044 6.241 9.732 6.85 9.42 7.548 9.265 8.336 9.265 10.133 9.265 11.351 9.852 11.988 11.026 L12.278 11.026 C12.601 10.468 13.075 10.035 13.702 9.727 14.328 9.419 15.035 9.265 15.823 9.265 17.184 9.265 18.213 9.614 18.912 10.312 19.61 11.01 19.959 12.129 19.959 13.669 L19.959 21.5 16.672 21.5 16.672 14.485 C16.672 13.619 16.527 12.969 16.237 12.536 15.947 12.102 15.49 11.886 14.867 11.886 14.065 11.886 13.465 12.172 13.068 12.745 12.67 13.318 12.472 14.228 12.472 15.474 Z"/>
 </defs>
 <use id="m" xlink:href="#path-34" fill="#000000" fill-opacity="1" stroke="none"/>
 <use id="m-1" xlink:href="#path-34" fill="#ffffff" fill-opacity="1" stroke="none"/>
</svg>
