<?xml version="1.0" encoding="UTF-8"?>
<svg width="277px" height="50px" viewBox="0 0 277 50" xmlns="http://www.w3.org/2000/svg" xmlns:xlink="http://www.w3.org/1999/xlink" version="1.1">
 <!-- Generated by Pixelmator Pro 1.3.4 -->
 <defs>
  <path id="path" d="M231.474 41.812 C231.474 41.21 231.635 40.756 231.957 40.448 232.279 40.14 232.748 39.986 233.364 39.986 233.959 39.986 234.419 40.143 234.745 40.458 235.07 40.774 235.233 41.225 235.233 41.812 235.233 42.378 235.069 42.824 234.739 43.149 234.41 43.475 233.951 43.638 233.364 43.638 232.763 43.638 232.297 43.479 231.968 43.16 231.638 42.842 231.474 42.392 231.474 41.812 Z"/>
 </defs>
 <use id="-" xlink:href="#path" fill="#000000" fill-opacity="1" stroke="none"/>
 <use id="--1" xlink:href="#path" fill="#ffffff" fill-opacity="1" stroke="none"/>
 <defs>
  <path id="path-1" d="M225.2 41.812 C225.2 41.21 225.361 40.756 225.684 40.448 226.006 40.14 226.475 39.986 227.091 39.986 227.685 39.986 228.145 40.143 228.471 40.458 228.797 40.774 228.96 41.225 228.96 41.812 228.96 42.378 228.795 42.824 228.466 43.149 228.136 43.475 227.678 43.638 227.091 43.638 226.489 43.638 226.024 43.479 225.694 43.16 225.365 42.842 225.2 42.392 225.2 41.812 Z"/>
 </defs>
 <use id="--2" xlink:href="#path-1" fill="#000000" fill-opacity="1" stroke="none"/>
 <use id="--3" xlink:href="#path-1" fill="#ffffff" fill-opacity="1" stroke="none"/>
 <defs>
  <path id="path-2" d="M218.927 41.812 C218.927 41.21 219.088 40.756 219.41 40.448 219.732 40.14 220.201 39.986 220.817 39.986 221.412 39.986 221.872 40.143 222.198 40.458 222.524 40.774 222.687 41.225 222.687 41.812 222.687 42.378 222.522 42.824 222.192 43.149 221.863 43.475 221.405 43.638 220.817 43.638 220.216 43.638 219.75 43.479 219.421 43.16 219.091 42.842 218.927 42.392 218.927 41.812 Z"/>
 </defs>
 <use id="--4" xlink:href="#path-2" fill="#000000" fill-opacity="1" stroke="none"/>
 <use id="--5" xlink:href="#path-2" fill="#ffffff" fill-opacity="1" stroke="none"/>
 <defs>
  <path id="path-3" d="M215.951 43.348 L212.675 43.348 212.675 26.633 215.951 26.633 Z"/>
 </defs>
 <use id="l" xlink:href="#path-3" fill="#000000" fill-opacity="1" stroke="none"/>
 <use id="l-1" xlink:href="#path-3" fill="#ffffff" fill-opacity="1" stroke="none"/>
 <defs>
  <path id="path-4" d="M205.821 28.234 C205.821 27.167 206.416 26.633 207.604 26.633 208.793 26.633 209.388 27.167 209.388 28.234 209.388 28.742 209.239 29.138 208.942 29.421 208.645 29.704 208.199 29.845 207.604 29.845 206.416 29.845 205.821 29.308 205.821 28.234 Z M209.237 43.348 L205.961 43.348 205.961 31.338 209.237 31.338 Z"/>
 </defs>
 <use id="i" xlink:href="#path-4" fill="#000000" fill-opacity="1" stroke="none"/>
 <use id="i-1" xlink:href="#path-4" fill="#ffffff" fill-opacity="1" stroke="none"/>
 <defs>
  <path id="path-5" d="M197.937 33.444 C197.242 33.444 196.698 33.664 196.304 34.104 195.91 34.545 195.684 35.17 195.627 35.979 L200.225 35.979 C200.21 35.17 199.999 34.545 199.591 34.104 199.182 33.664 198.631 33.444 197.937 33.444 Z M198.398 43.563 C196.465 43.563 194.954 43.029 193.865 41.962 192.777 40.895 192.232 39.384 192.232 37.429 192.232 35.417 192.735 33.861 193.742 32.762 194.748 31.662 196.139 31.113 197.915 31.113 199.612 31.113 200.933 31.596 201.879 32.563 202.824 33.53 203.297 34.865 203.297 36.57 L203.297 38.16 195.552 38.16 C195.588 39.091 195.863 39.818 196.379 40.34 196.895 40.863 197.618 41.124 198.549 41.124 199.272 41.124 199.956 41.049 200.601 40.899 201.245 40.748 201.918 40.509 202.62 40.179 L202.62 42.714 C202.047 43.001 201.435 43.214 200.783 43.353 200.131 43.493 199.337 43.563 198.398 43.563 Z"/>
 </defs>
 <use id="e" xlink:href="#path-5" fill="#000000" fill-opacity="1" stroke="none"/>
 <use id="e-1" xlink:href="#path-5" fill="#ffffff" fill-opacity="1" stroke="none"/>
 <defs>
  <path id="path-6" d="M184.004 43.348 L183.08 39.148 181.834 33.841 181.759 33.841 179.567 43.348 176.044 43.348 172.628 31.338 175.894 31.338 177.279 36.656 C177.501 37.608 177.727 38.922 177.956 40.598 L178.021 40.598 C178.049 40.054 178.174 39.191 178.396 38.009 L178.568 37.096 180.051 31.338 183.66 31.338 185.067 37.096 C185.096 37.254 185.141 37.487 185.202 37.794 185.262 38.102 185.322 38.43 185.379 38.777 185.436 39.125 185.488 39.465 185.535 39.798 185.581 40.131 185.608 40.398 185.615 40.598 L185.68 40.598 C185.744 40.083 185.859 39.375 186.023 38.477 186.188 37.578 186.306 36.971 186.378 36.656 L187.817 31.338 191.029 31.338 187.57 43.348 Z"/>
 </defs>
 <use id="w" xlink:href="#path-6" fill="#000000" fill-opacity="1" stroke="none"/>
 <use id="w-1" xlink:href="#path-6" fill="#ffffff" fill-opacity="1" stroke="none"/>
 <defs>
  <text id="string" transform="matrix(1.0 0.0 0.0 1.0 162.1982421875 19.348011363639998)">
   <tspan x="4.5" y="24.0" font-family="OpenSansBold, OpenSansBold" font-size="22" text-decoration="none"> </tspan>
  </text>
 </defs>
 <use id="--6" xlink:href="#string" fill="#ffffff" fill-opacity="1" stroke="none"/>
 <defs>
  <path id="path-7" d="M166.44 31.338 L166.44 33.003 164.561 33.487 C164.904 34.024 165.076 34.625 165.076 35.291 165.076 36.58 164.627 37.585 163.728 38.305 162.829 39.024 161.581 39.384 159.984 39.384 L159.394 39.352 158.91 39.298 C158.573 39.556 158.405 39.843 158.405 40.158 158.405 40.63 159.007 40.867 160.21 40.867 L162.251 40.867 C163.569 40.867 164.573 41.15 165.264 41.715 165.955 42.281 166.301 43.112 166.301 44.207 166.301 45.611 165.715 46.7 164.544 47.473 163.373 48.246 161.692 48.633 159.501 48.633 157.825 48.633 156.545 48.341 155.661 47.758 154.776 47.174 154.334 46.356 154.334 45.303 154.334 44.58 154.559 43.975 155.011 43.488 155.462 43.001 156.124 42.653 156.998 42.446 156.661 42.302 156.368 42.068 156.117 41.742 155.866 41.416 155.741 41.071 155.741 40.705 155.741 40.247 155.874 39.866 156.139 39.561 156.404 39.257 156.787 38.958 157.288 38.664 156.658 38.392 156.158 37.955 155.79 37.354 155.421 36.752 155.236 36.043 155.236 35.227 155.236 33.916 155.662 32.903 156.515 32.187 157.367 31.471 158.584 31.113 160.167 31.113 160.504 31.113 160.903 31.143 161.365 31.204 161.827 31.265 162.122 31.31 162.251 31.338 Z M157.17 45.045 C157.17 45.496 157.386 45.851 157.82 46.109 158.253 46.367 158.86 46.495 159.641 46.495 160.815 46.495 161.735 46.334 162.401 46.012 163.067 45.69 163.4 45.249 163.4 44.691 163.4 44.24 163.203 43.928 162.81 43.756 162.416 43.584 161.807 43.498 160.983 43.498 L159.286 43.498 C158.684 43.498 158.181 43.64 157.777 43.923 157.372 44.206 157.17 44.58 157.17 45.045 Z M158.362 35.27 C158.362 35.922 158.511 36.437 158.808 36.817 159.105 37.196 159.558 37.386 160.167 37.386 160.783 37.386 161.234 37.196 161.521 36.817 161.807 36.437 161.95 35.922 161.95 35.27 161.95 33.823 161.356 33.1 160.167 33.1 158.964 33.1 158.362 33.823 158.362 35.27 Z"/>
 </defs>
 <use id="g" xlink:href="#path-7" fill="#000000" fill-opacity="1" stroke="none"/>
 <use id="g-1" xlink:href="#path-7" fill="#ffffff" fill-opacity="1" stroke="none"/>
 <defs>
  <path id="path-8" d="M152.615 43.348 L149.339 43.348 149.339 36.333 C149.339 35.467 149.185 34.817 148.877 34.384 148.569 33.95 148.078 33.734 147.405 33.734 146.489 33.734 145.826 34.04 145.418 34.652 145.01 35.265 144.806 36.28 144.806 37.698 L144.806 43.348 141.529 43.348 141.529 31.338 144.032 31.338 144.473 32.874 144.655 32.874 C145.021 32.294 145.524 31.856 146.165 31.558 146.805 31.261 147.534 31.113 148.351 31.113 149.747 31.113 150.807 31.49 151.53 32.246 152.254 33.002 152.615 34.092 152.615 35.517 Z"/>
 </defs>
 <use id="n" xlink:href="#path-8" fill="#000000" fill-opacity="1" stroke="none"/>
 <use id="n-1" xlink:href="#path-8" fill="#ffffff" fill-opacity="1" stroke="none"/>
 <defs>
  <path id="path-9" d="M135.578 43.348 L135.138 41.812 134.966 41.812 C134.615 42.371 134.117 42.802 133.473 43.106 132.828 43.411 132.094 43.563 131.271 43.563 129.86 43.563 128.796 43.185 128.08 42.43 127.364 41.674 127.006 40.587 127.006 39.169 L127.006 31.338 130.282 31.338 130.282 38.353 C130.282 39.22 130.436 39.87 130.744 40.303 131.052 40.736 131.543 40.953 132.216 40.953 133.132 40.953 133.795 40.646 134.203 40.034 134.611 39.422 134.815 38.407 134.815 36.989 L134.815 31.338 138.092 31.338 138.092 43.348 Z"/>
 </defs>
 <use id="u" xlink:href="#path-9" fill="#000000" fill-opacity="1" stroke="none"/>
 <use id="u-1" xlink:href="#path-9" fill="#ffffff" fill-opacity="1" stroke="none"/>
 <defs>
  <path id="path-10" d="M122.58 40.953 C123.153 40.953 123.84 40.827 124.643 40.577 L124.643 43.015 C123.826 43.38 122.823 43.563 121.635 43.563 120.324 43.563 119.37 43.232 118.772 42.569 118.174 41.907 117.875 40.913 117.875 39.588 L117.875 33.798 116.307 33.798 116.307 32.413 118.111 31.317 119.057 28.782 121.151 28.782 121.151 31.338 124.514 31.338 124.514 33.798 121.151 33.798 121.151 39.588 C121.151 40.054 121.282 40.398 121.543 40.62 121.805 40.842 122.15 40.953 122.58 40.953 Z"/>
 </defs>
 <use id="t" xlink:href="#path-10" fill="#000000" fill-opacity="1" stroke="none"/>
 <use id="t-1" xlink:href="#path-10" fill="#ffffff" fill-opacity="1" stroke="none"/>
 <defs>
  <path id="path-11" d="M114.233 31.113 C114.677 31.113 115.046 31.145 115.34 31.209 L115.093 34.282 C114.828 34.21 114.505 34.174 114.126 34.174 113.08 34.174 112.266 34.443 111.682 34.98 111.098 35.517 110.807 36.269 110.807 37.236 L110.807 43.348 107.53 43.348 107.53 31.338 110.012 31.338 110.495 33.358 110.656 33.358 C111.029 32.685 111.532 32.142 112.166 31.73 112.799 31.319 113.489 31.113 114.233 31.113 Z"/>
 </defs>
 <use id="r" xlink:href="#path-11" fill="#000000" fill-opacity="1" stroke="none"/>
 <use id="r-1" xlink:href="#path-11" fill="#ffffff" fill-opacity="1" stroke="none"/>
 <defs>
  <path id="path-12" d="M96.52 37.322 C96.52 38.51 96.715 39.409 97.105 40.018 97.495 40.627 98.131 40.931 99.012 40.931 99.885 40.931 100.514 40.629 100.897 40.023 101.28 39.418 101.472 38.518 101.472 37.322 101.472 36.133 101.278 35.241 100.892 34.647 100.505 34.052 99.871 33.755 98.99 33.755 98.116 33.755 97.486 34.051 97.1 34.641 96.713 35.232 96.52 36.126 96.52 37.322 Z M104.823 37.322 C104.823 39.277 104.308 40.806 103.276 41.909 102.245 43.011 100.809 43.563 98.969 43.563 97.816 43.563 96.799 43.31 95.918 42.806 95.037 42.301 94.36 41.576 93.888 40.63 93.415 39.685 93.179 38.582 93.179 37.322 93.179 35.359 93.691 33.834 94.715 32.745 95.739 31.657 97.178 31.113 99.033 31.113 100.186 31.113 101.203 31.363 102.084 31.865 102.965 32.366 103.641 33.086 104.114 34.024 104.587 34.962 104.823 36.061 104.823 37.322 Z"/>
 </defs>
 <use id="o" xlink:href="#path-12" fill="#000000" fill-opacity="1" stroke="none"/>
 <use id="o-1" xlink:href="#path-12" fill="#ffffff" fill-opacity="1" stroke="none"/>
 <defs>
  <path id="path-13" d="M84.95 43.348 L84.026 39.148 82.78 33.841 82.705 33.841 80.514 43.348 76.99 43.348 73.574 31.338 76.84 31.338 78.226 36.656 C78.448 37.608 78.673 38.922 78.902 40.598 L78.967 40.598 C78.995 40.054 79.121 39.191 79.343 38.009 L79.515 37.096 80.997 31.338 84.606 31.338 86.014 37.096 C86.042 37.254 86.087 37.487 86.148 37.794 86.209 38.102 86.268 38.43 86.325 38.777 86.382 39.125 86.434 39.465 86.481 39.798 86.527 40.131 86.554 40.398 86.562 40.598 L86.626 40.598 C86.69 40.083 86.805 39.375 86.97 38.477 87.134 37.578 87.253 36.971 87.324 36.656 L88.764 31.338 91.976 31.338 88.517 43.348 Z"/>
 </defs>
 <use id="w-2" xlink:href="#path-13" fill="#000000" fill-opacity="1" stroke="none"/>
 <use id="w-3" xlink:href="#path-13" fill="#ffffff" fill-opacity="1" stroke="none"/>
 <defs>
  <path id="path-14" d="M70.588 40.953 C71.161 40.953 71.848 40.827 72.65 40.577 L72.65 43.015 C71.834 43.38 70.831 43.563 69.643 43.563 68.332 43.563 67.378 43.232 66.78 42.569 66.182 41.907 65.883 40.913 65.883 39.588 L65.883 33.798 64.314 33.798 64.314 32.413 66.119 31.317 67.064 28.782 69.159 28.782 69.159 31.338 72.521 31.338 72.521 33.798 69.159 33.798 69.159 39.588 C69.159 40.054 69.29 40.398 69.551 40.62 69.813 40.842 70.158 40.953 70.588 40.953 Z"/>
 </defs>
 <use id="t-2" xlink:href="#path-14" fill="#000000" fill-opacity="1" stroke="none"/>
 <use id="t-3" xlink:href="#path-14" fill="#ffffff" fill-opacity="1" stroke="none"/>
 <defs>
  <path id="path-15" d="M62.155 43.348 L58.879 43.348 58.879 36.333 C58.879 35.467 58.725 34.817 58.417 34.384 58.109 33.95 57.618 33.734 56.945 33.734 56.029 33.734 55.366 34.04 54.958 34.652 54.55 35.265 54.346 36.28 54.346 37.698 L54.346 43.348 51.069 43.348 51.069 31.338 53.572 31.338 54.013 32.874 54.195 32.874 C54.561 32.294 55.064 31.856 55.705 31.558 56.345 31.261 57.074 31.113 57.891 31.113 59.287 31.113 60.347 31.49 61.07 32.246 61.794 33.002 62.155 34.092 62.155 35.517 Z"/>
 </defs>
 <use id="n-2" xlink:href="#path-15" fill="#000000" fill-opacity="1" stroke="none"/>
 <use id="n-3" xlink:href="#path-15" fill="#ffffff" fill-opacity="1" stroke="none"/>
 <defs>
  <path id="path-16" d="M45.408 43.348 L44.774 41.715 44.688 41.715 C44.137 42.41 43.569 42.891 42.986 43.16 42.402 43.429 41.641 43.563 40.703 43.563 39.55 43.563 38.642 43.234 37.98 42.575 37.318 41.916 36.986 40.978 36.986 39.76 36.986 38.485 37.432 37.546 38.324 36.94 39.215 36.335 40.56 36 42.357 35.936 L44.441 35.871 44.441 35.345 C44.441 34.128 43.818 33.519 42.572 33.519 41.613 33.519 40.485 33.809 39.188 34.389 L38.104 32.176 C39.486 31.453 41.018 31.091 42.701 31.091 44.313 31.091 45.548 31.442 46.407 32.144 47.267 32.846 47.696 33.913 47.696 35.345 L47.696 43.348 Z M44.441 37.784 L43.174 37.827 C42.221 37.855 41.512 38.027 41.047 38.342 40.581 38.657 40.349 39.137 40.349 39.782 40.349 40.705 40.879 41.167 41.938 41.167 42.698 41.167 43.304 40.949 43.759 40.512 44.214 40.075 44.441 39.495 44.441 38.772 Z"/>
 </defs>
 <use id="a" xlink:href="#path-16" fill="#000000" fill-opacity="1" stroke="none"/>
 <use id="a-1" xlink:href="#path-16" fill="#ffffff" fill-opacity="1" stroke="none"/>
 <defs>
  <path id="path-17" d="M34.935 31.113 C35.379 31.113 35.747 31.145 36.041 31.209 L35.794 34.282 C35.529 34.21 35.207 34.174 34.827 34.174 33.781 34.174 32.967 34.443 32.383 34.98 31.8 35.517 31.508 36.269 31.508 37.236 L31.508 43.348 28.231 43.348 28.231 31.338 30.713 31.338 31.196 33.358 31.357 33.358 C31.73 32.685 32.233 32.142 32.867 31.73 33.5 31.319 34.19 31.113 34.935 31.113 Z"/>
 </defs>
 <use id="r-2" xlink:href="#path-17" fill="#000000" fill-opacity="1" stroke="none"/>
 <use id="r-3" xlink:href="#path-17" fill="#ffffff" fill-opacity="1" stroke="none"/>
 <defs>
  <path id="path-18" d="M20.207 33.444 C19.512 33.444 18.968 33.664 18.574 34.104 18.18 34.545 17.955 35.17 17.897 35.979 L22.495 35.979 C22.481 35.17 22.27 34.545 21.861 34.104 21.453 33.664 20.902 33.444 20.207 33.444 Z M20.669 43.563 C18.735 43.563 17.224 43.029 16.136 41.962 15.047 40.895 14.503 39.384 14.503 37.429 14.503 35.417 15.006 33.861 16.012 32.762 17.018 31.662 18.409 31.113 20.186 31.113 21.883 31.113 23.204 31.596 24.149 32.563 25.095 33.53 25.567 34.865 25.567 36.57 L25.567 38.16 17.822 38.16 C17.858 39.091 18.134 39.818 18.649 40.34 19.165 40.863 19.888 41.124 20.819 41.124 21.543 41.124 22.226 41.049 22.871 40.899 23.516 40.748 24.189 40.509 24.891 40.179 L24.891 42.714 C24.318 43.001 23.705 43.214 23.054 43.353 22.402 43.493 21.607 43.563 20.669 43.563 Z"/>
 </defs>
 <use id="e-2" xlink:href="#path-18" fill="#000000" fill-opacity="1" stroke="none"/>
 <use id="e-3" xlink:href="#path-18" fill="#ffffff" fill-opacity="1" stroke="none"/>
 <defs>
  <path id="path-19" d="M5.576 43.348 L1 31.338 4.427 31.338 6.747 38.181 C7.005 39.048 7.166 39.868 7.23 40.641 L7.295 40.641 C7.331 39.954 7.492 39.134 7.778 38.181 L10.088 31.338 13.515 31.338 8.938 43.348 Z"/>
 </defs>
 <use id="v" xlink:href="#path-19" fill="#000000" fill-opacity="1" stroke="none"/>
 <use id="v-1" xlink:href="#path-19" fill="#ffffff" fill-opacity="1" stroke="none"/>
 <defs>
  <path id="path-20" d="M91.116 16.258 L91.116 13.572 96.885 13.572 96.885 16.258 Z"/>
 </defs>
 <use id="--7" xlink:href="#path-20" fill="#000000" fill-opacity="1" stroke="none"/>
 <use id="--8" xlink:href="#path-20" fill="#ffffff" fill-opacity="1" stroke="none"/>
 <defs>
  <path id="path-21" d="M88.807 20.813 L85.53 20.813 85.53 13.798 C85.53 12.931 85.376 12.281 85.068 11.848 84.76 11.415 84.27 11.198 83.597 11.198 82.68 11.198 82.018 11.504 81.609 12.117 81.201 12.729 80.997 13.744 80.997 15.162 L80.997 20.813 77.721 20.813 77.721 8.803 80.224 8.803 80.664 10.339 80.847 10.339 C81.212 9.759 81.715 9.32 82.356 9.023 82.997 8.726 83.725 8.577 84.542 8.577 85.938 8.577 86.998 8.955 87.722 9.71 88.445 10.466 88.807 11.556 88.807 12.981 Z"/>
 </defs>
 <use id="n-4" xlink:href="#path-21" fill="#000000" fill-opacity="1" stroke="none"/>
 <use id="n-5" xlink:href="#path-21" fill="#ffffff" fill-opacity="1" stroke="none"/>
 <defs>
  <path id="path-22" d="M74.434 8.577 C74.878 8.577 75.246 8.609 75.54 8.674 L75.293 11.746 C75.028 11.675 74.706 11.639 74.326 11.639 73.281 11.639 72.466 11.907 71.882 12.444 71.299 12.982 71.007 13.733 71.007 14.7 L71.007 20.813 67.73 20.813 67.73 8.803 70.212 8.803 70.695 10.822 70.856 10.822 C71.229 10.149 71.732 9.607 72.366 9.195 73 8.783 73.689 8.577 74.434 8.577 Z"/>
 </defs>
 <use id="r-4" xlink:href="#path-22" fill="#000000" fill-opacity="1" stroke="none"/>
 <use id="r-5" xlink:href="#path-22" fill="#ffffff" fill-opacity="1" stroke="none"/>
 <defs>
  <path id="path-23" d="M59.706 10.908 C59.011 10.908 58.467 11.128 58.073 11.569 57.679 12.009 57.454 12.634 57.396 13.443 L61.994 13.443 C61.98 12.634 61.769 12.009 61.36 11.569 60.952 11.128 60.401 10.908 59.706 10.908 Z M60.168 21.027 C58.234 21.027 56.723 20.494 55.635 19.427 54.546 18.36 54.002 16.849 54.002 14.894 54.002 12.881 54.505 11.325 55.511 10.226 56.517 9.127 57.908 8.577 59.685 8.577 61.382 8.577 62.703 9.061 63.648 10.027 64.594 10.994 65.066 12.33 65.066 14.034 L65.066 15.624 57.321 15.624 C57.357 16.555 57.633 17.282 58.148 17.805 58.664 18.328 59.387 18.589 60.318 18.589 61.042 18.589 61.725 18.514 62.37 18.363 63.015 18.213 63.688 17.973 64.39 17.644 L64.39 20.179 C63.817 20.465 63.204 20.678 62.553 20.818 61.901 20.958 61.106 21.027 60.168 21.027 Z"/>
 </defs>
 <use id="e-4" xlink:href="#path-23" fill="#000000" fill-opacity="1" stroke="none"/>
 <use id="e-5" xlink:href="#path-23" fill="#ffffff" fill-opacity="1" stroke="none"/>
 <defs>
  <path id="path-24" d="M52.358 20.813 L42.873 20.813 42.873 18.879 48.438 11.306 43.206 11.306 43.206 8.803 52.165 8.803 52.165 10.93 46.751 18.31 52.358 18.31 Z"/>
 </defs>
 <use id="z" xlink:href="#path-24" fill="#000000" fill-opacity="1" stroke="none"/>
 <use id="z-1" xlink:href="#path-24" fill="#ffffff" fill-opacity="1" stroke="none"/>
 <defs>
  <path id="path-25" d="M40.628 20.813 L37.352 20.813 37.352 13.798 C37.352 12.931 37.198 12.281 36.89 11.848 36.582 11.415 36.091 11.198 35.418 11.198 34.501 11.198 33.839 11.504 33.431 12.117 33.022 12.729 32.818 13.744 32.818 15.162 L32.818 20.813 29.542 20.813 29.542 8.803 32.045 8.803 32.485 10.339 32.668 10.339 C33.033 9.759 33.536 9.32 34.177 9.023 34.818 8.726 35.547 8.577 36.363 8.577 37.76 8.577 38.82 8.955 39.543 9.71 40.266 10.466 40.628 11.556 40.628 12.981 Z"/>
 </defs>
 <use id="n-6" xlink:href="#path-25" fill="#000000" fill-opacity="1" stroke="none"/>
 <use id="n-7" xlink:href="#path-25" fill="#ffffff" fill-opacity="1" stroke="none"/>
 <defs>
  <path id="path-26" d="M18.531 14.786 C18.531 15.975 18.726 16.874 19.117 17.482 19.507 18.091 20.142 18.396 21.023 18.396 21.897 18.396 22.526 18.093 22.909 17.488 23.292 16.883 23.483 15.982 23.483 14.786 23.483 13.597 23.29 12.706 22.903 12.111 22.516 11.517 21.883 11.22 21.002 11.22 20.128 11.22 19.498 11.515 19.111 12.106 18.724 12.697 18.531 13.59 18.531 14.786 Z M26.835 14.786 C26.835 16.741 26.319 18.27 25.288 19.373 24.257 20.476 22.821 21.027 20.98 21.027 19.827 21.027 18.811 20.775 17.93 20.27 17.049 19.765 16.372 19.04 15.899 18.095 15.427 17.149 15.19 16.047 15.19 14.786 15.19 12.824 15.702 11.299 16.727 10.21 17.751 9.121 19.19 8.577 21.045 8.577 22.198 8.577 23.215 8.828 24.096 9.329 24.977 9.83 25.653 10.55 26.126 11.488 26.599 12.427 26.835 13.526 26.835 14.786 Z"/>
 </defs>
 <use id="o-2" xlink:href="#path-26" fill="#000000" fill-opacity="1" stroke="none"/>
 <use id="o-3" xlink:href="#path-26" fill="#ffffff" fill-opacity="1" stroke="none"/>
 <defs>
  <path id="path-27" d="M5.866 14.281 L7.295 12.455 10.657 8.803 14.353 8.803 9.583 14.013 14.643 20.813 10.861 20.813 7.402 15.946 5.995 17.074 5.995 20.813 2.719 20.813 2.719 4.098 5.995 4.098 5.995 11.553 5.823 14.281 Z"/>
 </defs>
 <use id="k" xlink:href="#path-27" fill="#000000" fill-opacity="1" stroke="none"/>
 <use id="k-1" xlink:href="#path-27" fill="#ffffff" fill-opacity="1" stroke="none"/>
</svg>
